<svg xmlns="http://www.w3.org/2000/svg" viewBox="0 0 500 500"><g id="freepik--background-complete--inject-318"><path d="M90.21,66.09l-13.36.28-6.58.11c-2.19,0-4.36,0-6.54.06l.44-.45.06,11.19-.5-.5L77,76.85c4.41,0,8.82.11,13.24.16l-.28.27c0-1.83.09-3.67.14-5.53Zm0,0,.14,5.54c0,1.87.11,3.76.13,5.65v.27h-.27c-4.42,0-8.83.16-13.24.16l-13.24.06h-.5v-.51l.05-11.19v-.44h.45c2.23,0,4.47,0,6.69,0l6.66.12Z" style="fill:#ebebeb"></path><path d="M75.44,52l-13.36.28-6.58.12c-2.19,0-4.36,0-6.54,0L49.4,52l.05,11.19-.49-.5,13.24.07c4.41,0,8.82.11,13.24.16l-.28.27c0-1.83.09-3.67.13-5.53Zm0,0,.14,5.54c0,1.87.11,3.76.13,5.65v.27h-.27c-4.42,0-8.83.16-13.24.16L49,63.67h-.51v-.51l0-11.19v-.44H49c2.23,0,4.46,0,6.69.05l6.66.12Z" style="fill:#ebebeb"></path><path d="M105,52l-13.36.28L85,52.38c-2.18,0-4.36,0-6.54,0l.44-.45L79,63.17l-.5-.5,13.24.07c4.41,0,8.83.11,13.24.16l-.27.27c0-1.83.08-3.67.13-5.53Zm0,0,.14,5.54c0,1.87.11,3.76.13,5.65v.27H105c-4.41,0-8.83.16-13.24.16l-13.24.06H78v-.51l0-11.19v-.44h.44c2.23,0,4.47,0,6.69.05l6.66.12Z" style="fill:#ebebeb"></path><path d="M436.27,52l-13.35.28-6.58.12c-2.19,0-4.37,0-6.55,0l.45-.45.05,11.19-.5-.5,13.24.07c4.42,0,8.83.11,13.24.16l-.27.27c0-1.83.09-3.67.13-5.53Zm0,0,.15,5.54c0,1.87.11,3.76.13,5.65v.27h-.28c-4.41,0-8.82.16-13.24.16l-13.24.06h-.5v-.51L409.35,52v-.44h.44c2.23,0,4.47,0,6.7.05l6.66.12Z" style="fill:#ebebeb"></path><path d="M436.27,353.94l-13.35.28-6.58.11c-2.19.05-4.37,0-6.55.05l.45-.44.05,11.19-.5-.5,13.24.06c4.42,0,8.83.11,13.24.17l-.27.27c0-1.83.09-3.67.13-5.54Zm0,0,.15,5.54c0,1.86.11,3.75.13,5.65v.27h-.28c-4.41.05-8.82.16-13.24.17l-13.24.06h-.5v-.5l.06-11.19v-.45h.44c2.23,0,4.47,0,6.7.06l6.66.11Z" style="fill:#ebebeb"></path><path d="M451,339.83l-13.35.28-6.58.11c-2.19,0-4.36,0-6.55,0l.45-.44.05,11.19-.5-.5,13.24.06c4.42,0,8.83.11,13.24.17l-.27.27c0-1.83.09-3.67.13-5.54Zm0,0,.15,5.54c0,1.86.11,3.75.13,5.65v.27H451c-4.41,0-8.82.16-13.24.17l-13.24.06h-.5V351l.06-11.19v-.45h.44c2.24,0,4.47,0,6.7.06l6.66.11Z" style="fill:#ebebeb"></path><path d="M75.44,353.93l-13.36.28-6.58.11c-2.19,0-4.36,0-6.54.05l.44-.44.05,11.19-.49-.5,13.24.06c4.41,0,8.82.11,13.24.16l-.28.28c0-1.83.09-3.68.13-5.54Zm0,0,.14,5.53c0,1.87.11,3.76.13,5.66v.27h-.27c-4.42.05-8.83.16-13.24.16L49,365.62h-.51v-.5l0-11.19v-.45H49c2.23,0,4.46,0,6.69.06l6.66.11Z" style="fill:#ebebeb"></path><path d="M209.58,232l13.36-.28,6.58-.11c2.18-.05,4.36,0,6.54-.06l-.44.45-.06-11.19.5.5-13.24-.07c-4.41,0-8.82-.11-13.24-.16l.28-.27c0,1.83-.09,3.67-.14,5.53Zm0,0-.14-5.54c0-1.87-.11-3.75-.13-5.65v-.27h.27c4.42,0,8.83-.15,13.24-.16l13.24-.06h.5v.5L236.51,232v.45h-.45c-2.23,0-4.47,0-6.69,0l-6.66-.11Z" style="fill:#ebebeb"></path><path d="M224.35,246.09l13.36-.28,6.58-.11c2.19,0,4.36,0,6.54-.06l-.44.45,0-11.19.49.5-13.24-.07c-4.41,0-8.82-.11-13.24-.16l.28-.27c0,1.83-.09,3.67-.13,5.53Zm0,0-.14-5.54c0-1.87-.11-3.75-.13-5.65v-.27h.27c4.42-.05,8.83-.15,13.24-.16l13.24-.06h.51v.51l-.05,11.19v.45h-.45c-2.23,0-4.46,0-6.69-.05l-6.66-.11Z" style="fill:#ebebeb"></path><polygon points="273.59 364.2 449.33 364.2 452.98 292.1 269.94 292.1 273.59 364.2" style="fill:#ebebeb"></polygon><path d="M441,325.1H367.53l-1.38-25h76.46Zm-72.63-.88h71.8L441.66,301H367.09Z" style="fill:#dbdbdb"></path><path d="M439.64,353.9H370.41l-1.13-22.59h71.78ZM371.25,353h67.56l1.3-20.83H370.22Z" style="fill:#dbdbdb"></path><path d="M411.34,315.3H399l-.77-6h13.9Zm-11.57-.89h10.79l.55-4.26H399.22Z" style="fill:#dbdbdb"></path><path d="M411.34,345.62H399l-.77-6h13.9Zm-11.57-.88h10.79l.55-4.27H399.22Z" style="fill:#dbdbdb"></path><path d="M354.58,325.1H281.11l-1.38-25h76.46ZM282,324.22h71.8L355.24,301H280.67Z" style="fill:#dbdbdb"></path><path d="M353.22,353.9H284l-1.13-22.59h71.78ZM284.83,353h67.56l1.3-20.83H283.8Z" style="fill:#dbdbdb"></path><path d="M324.92,315.3H312.57l-.77-6h13.9Zm-11.57-.89h10.79l.55-4.26H312.8Z" style="fill:#dbdbdb"></path><path d="M324.92,345.62H312.57l-.77-6h13.9Zm-11.57-.88h10.79l.55-4.27H312.8Z" style="fill:#dbdbdb"></path><polygon points="289.35 364.2 288.25 372.06 286.03 387.84 281.69 387.84 281.69 364.2 289.35 364.2" style="fill:#ebebeb"></polygon><polygon points="289.35 364.2 288.25 372.06 281.69 372.06 281.69 364.2 289.35 364.2" style="fill:#dbdbdb"></polygon><polygon points="433.57 364.2 434.67 372.06 436.89 387.84 441.23 387.84 441.23 364.2 433.57 364.2" style="fill:#ebebeb"></polygon><polygon points="433.57 364.2 434.67 372.06 441.23 372.06 441.23 364.2 433.57 364.2" style="fill:#dbdbdb"></polygon><rect x="61.25" y="104.25" width="111.82" height="6.64" transform="translate(234.32 215.14) rotate(180)" style="fill:#ebebeb"></rect><rect x="157.94" y="110.89" width="6.64" height="21.96" style="fill:#ebebeb"></rect><rect x="157.94" y="110.89" width="6.64" height="6.79" style="fill:#dbdbdb"></rect><rect x="69.74" y="110.89" width="6.64" height="21.96" style="fill:#ebebeb"></rect><rect x="69.74" y="110.89" width="6.64" height="6.79" style="fill:#dbdbdb"></rect><rect x="118.32" y="77.77" width="42.32" height="10.66" transform="translate(222.58 -56.39) rotate(90)" style="fill:#c7c7c7"></rect><rect x="137.16" y="56.67" width="4.65" height="10.66" transform="translate(201.48 -77.48) rotate(90)" style="fill:#dbdbdb"></rect><rect x="138.62" y="65.82" width="1.73" height="10.66" transform="translate(210.63 -68.33) rotate(90)" style="fill:#dbdbdb"></rect><rect x="136.49" y="90.39" width="4.65" height="11.98" transform="translate(235.2 -42.44) rotate(90)" style="fill:#dbdbdb"></rect><rect x="105.75" y="75.85" width="49.36" height="7.45" transform="translate(210 -50.86) rotate(90)" style="fill:#dbdbdb"></rect><rect x="120.97" y="66.79" width="18.99" height="4.47" transform="translate(199.49 -61.44) rotate(90)" style="fill:#ebebeb"></rect><rect x="69.21" y="80.54" width="49.36" height="7.45" transform="translate(219.91 78.19) rotate(135.33)" style="fill:#c7c7c7"></rect><rect x="81.82" y="84.55" width="18.99" height="4.47" transform="translate(217.26 84.31) rotate(135.33)" style="fill:#dbdbdb"></rect><rect x="101.64" y="79.19" width="37.49" height="12.65" transform="translate(205.9 -34.87) rotate(90)" style="fill:#a6a6a6"></rect><rect x="118.64" y="92.22" width="3.49" height="12.65" transform="translate(218.93 -21.85) rotate(90)" style="fill:#c7c7c7"></rect><rect x="119.71" y="87.5" width="1.36" height="12.65" transform="translate(214.21 -26.57) rotate(90)" style="fill:#c7c7c7"></rect><rect x="131.56" y="82.28" width="35.24" height="8.74" transform="translate(235.82 -62.53) rotate(90)" style="fill:#a6a6a6"></rect><rect x="147.54" y="94.52" width="3.28" height="8.74" transform="translate(248.06 -50.29) rotate(90)" style="fill:#c7c7c7"></rect><rect x="147.54" y="73.56" width="3.28" height="8.74" transform="translate(227.11 -71.25) rotate(90)" style="fill:#c7c7c7"></rect><rect x="148.54" y="78.09" width="1.27" height="8.74" transform="translate(231.64 -66.72) rotate(90)" style="fill:#c7c7c7"></rect><rect x="335.76" y="77.72" width="49.3" height="49.3" style="fill:#fff"></rect><path d="M333.19,75.16v54.43h54.43V75.16ZM385.06,127h-49.3V77.72h49.3Z" style="fill:#dbdbdb"></path><rect x="353.78" y="89.74" width="17.04" height="38.43" transform="translate(471.26 -253.34) rotate(90)" style="fill:#ebebeb"></rect><rect x="350.57" y="92.53" width="19.69" height="19.69" transform="translate(462.79 -258.04) rotate(90)" style="fill:#c7c7c7"></rect><rect x="387.63" y="75.16" width="2.1" height="54.43" style="fill:#c7c7c7"></rect><rect x="335.76" y="147.73" width="49.3" height="49.3" style="fill:#fff"></rect><rect x="344.23" y="155.62" width="12.87" height="37.19" style="fill:#c7c7c7"></rect><path d="M333.19,145.16V199.6h54.43V145.16ZM385.06,197h-49.3v-49.3h49.3Z" style="fill:#dbdbdb"></path><rect x="350.57" y="162.54" width="19.69" height="19.69" style="fill:#ebebeb"></rect><rect x="387.63" y="145.16" width="2.1" height="54.43" style="fill:#c7c7c7"></rect><rect x="335.76" y="217.73" width="49.3" height="49.3" style="fill:#fff"></rect><rect x="341.23" y="224.46" width="27.05" height="16.17" style="fill:#ebebeb"></rect><path d="M333.19,215.17V269.6h54.43V215.17ZM385.06,267h-49.3V217.73h49.3Z" style="fill:#dbdbdb"></path><rect x="350.57" y="232.54" width="19.69" height="19.69" style="fill:#c7c7c7"></rect><rect x="387.63" y="215.17" width="2.1" height="54.43" style="fill:#c7c7c7"></rect></g><g id="freepik--Shadow--inject-318"><ellipse cx="250" cy="442.63" rx="197.58" ry="24.7" style="fill:#ebebeb"></ellipse></g><g id="freepik--Floor--inject-318"><polygon points="44.15 388.04 95.61 387.79 147.07 387.71 250 387.54 352.93 387.7 404.39 387.79 455.85 388.04 404.39 388.28 352.93 388.37 250 388.54 147.07 388.37 95.61 388.28 44.15 388.04" style="fill:#263238"></polygon></g><g id="freepik--Plant--inject-318"><path d="M85.74,237.62s-21.11-3-16.18-28.44C69.56,209.18,93.15,214.47,85.74,237.62Z" style="fill:#94FF27"></path><path d="M85.74,237.62s-21.11-3-16.18-28.44C69.56,209.18,93.15,214.47,85.74,237.62Z" style="opacity:0.1"></path><path d="M84.67,232.3c-.41-1.29-.9-2.56-1.43-3.8,0-.16,0-.33-.06-.48L83.09,227c-.06-.77-.1-1.53-.15-2.29-.09-1.52-.19-3-.21-4.57a.07.07,0,0,0-.13,0c0,1.53,0,3,0,4.58,0,.76.08,1.52.13,2.28l0,.51a44.76,44.76,0,0,0-4.23-7.24c-.72-1-1.49-2-2.31-2.93s-1.73-1.88-2.58-2.83c0-.06-.15,0-.09.09A38.27,38.27,0,0,1,77.64,220c.64,1,1.25,2,1.82,3l-.19-.07-.75-.31-1.73-.65c-1.13-.42-2.27-.83-3.39-1.26-.07,0-.12.09-.05.12,1.12.44,2.23.92,3.34,1.4l1.64.7.82.34a3.14,3.14,0,0,0,.56.2c.43.76.85,1.53,1.24,2.31a58,58,0,0,1,2.58,6.08l.15.44a12.44,12.44,0,0,0-1.73-.83l-2.19-1c-1.48-.68-3-1.37-4.37-2.17-.07,0-.13.07-.06.11,1.45.79,2.87,1.64,4.33,2.43.72.39,1.45.77,2.2,1.14a7.2,7.2,0,0,0,2,.79,24.59,24.59,0,0,1,1.38,6c.24,2.88.21,5.79.28,8.67,0,.06.07.05.08,0,.21-2.62.33-5.26.34-7.89A22.94,22.94,0,0,0,84.67,232.3Z" style="fill:#263238"></path><path d="M81.42,217.31a25.93,25.93,0,0,0-.21,4.49s.06,0,.07,0c.08-1.49.09-3,.27-4.46C81.56,217.26,81.43,217.23,81.42,217.31Z" style="fill:#263238"></path><path d="M75.39,218.59a16,16,0,0,1-2.72-1.34c-.07,0-.13.07-.06.11a10,10,0,0,0,2.74,1.31C75.4,218.69,75.44,218.61,75.39,218.59Z" style="fill:#263238"></path><path d="M86.41,278.08c0-2.33-.06-4.66-.08-7,0-7.74-.11-15.49-.25-23.24q-.17-9.22-.43-18.45a.09.09,0,0,0-.05-.08l0-5s0-.06-.1-.06-.1,0-.1.06l0,5s0,0,0,.07c-.31,11-.59,21.9-.65,32.85,0,2.23,0,4.45,0,6.68q-.1,10.71-.08,21.42c0,1.13,0,2.27,0,3.41,0,6.53.06,13.06.07,19.59,0,.35.39.53.8.54s1-.17,1-.57c0-7.2,0-14.4,0-21.61C86.43,287.16,86.45,282.62,86.41,278.08Z" style="fill:#263238"></path><path d="M77.6,271s-10.16-7.53-19.8-2.45-11.15,24.69-11.15,24.69,14.16,2,23.07-6.46C78.31,278.6,77.6,271,77.6,271Z" style="fill:#94FF27"></path><path d="M80.36,271.46a12.22,12.22,0,0,0-5.88-.77,8.54,8.54,0,0,0-1.24-.12l-1.43-.11-3-.21c-2-.15-4-.27-6-.47-.07,0-.08.12,0,.13,2,.25,3.95.53,5.93.73,1,.11,2,.21,3.07.28l.74.08c-.3.06-.61.14-.9.22a24.12,24.12,0,0,0-4.6,1.87c-.8.14-1.6.37-2.38.55-1.26.3-2.51.62-3.76.95-2.47.65-4.91,1.37-7.35,2.08-.08,0,0,.15,0,.13,2.45-.6,4.91-1.15,7.36-1.73l3.57-.86.93-.22a30.18,30.18,0,0,0-7.22,6.28,39.3,39.3,0,0,0-5,7.91c0,.07.07.14.11.07a38.55,38.55,0,0,1,6.07-8c0,.14-.09.27-.13.41l-.57,1.79c-.38,1.2-.76,2.39-1.11,3.59,0,.09.09.11.12,0,.43-1.16.84-2.33,1.25-3.49l.6-1.72.3-.89.1-.27a34.77,34.77,0,0,1,3.6-3.07A27.46,27.46,0,0,1,69,273.58c0,.17-.06.35-.1.52l-.3,1.38c-.2,1-.38,1.93-.57,2.89-.38,2-.62,4-1,5.93,0,.08.11.11.13,0,.45-2,1-3.92,1.48-5.91.22-1,.44-2,.65-3,.09-.46.19-.93.28-1.39,0-.26.11-.52.14-.78l.55-.23a16.15,16.15,0,0,1,8.45-1.16,8.34,8.34,0,0,1,6.12,4.9c.09.22.44.09.39-.14A7.86,7.86,0,0,0,80.36,271.46Z" style="fill:#263238"></path><path d="M64.82,279.83c-.29,1.28-.57,2.57-.86,3.86a28.47,28.47,0,0,0-.71,3.75,0,0,0,0,0,.08,0,28.75,28.75,0,0,0,.87-3.78c.25-1.27.5-2.54.74-3.81A.06.06,0,0,0,64.82,279.83Z" style="fill:#263238"></path><path d="M55,283.1c-1.3.66-2.55,1.4-3.9,1.94a.06.06,0,1,0,0,.11,40.61,40.61,0,0,0,3.88-2S55,283.08,55,283.1Z" style="fill:#263238"></path><path d="M79.88,257.18s-12.41.79-18.19-7.4-4.47-19.87-4.47-19.87,13,1.59,18.21,7.46S79.88,257.18,79.88,257.18Z" style="fill:#94FF27"></path><path d="M85.71,269.42c-.43-1.33-1-2.64-1.47-3.94s-1-2.49-1.54-3.72A79.64,79.64,0,0,0,79,254.45c-.88-1.51-1.82-3-2.78-4.42,0-.22-.07-.44-.1-.66-.06-.38-.11-.77-.17-1.15-.13-.79-.26-1.57-.4-2.35-.28-1.72-.63-3.42-.91-5.14,0-.08-.14-.08-.13,0,.25,1.69.42,3.39.66,5.09.12.83.23,1.67.35,2.5,0,.3.1.6.14.9a88.48,88.48,0,0,0-6.14-8c-.29-.34-.6-.67-.9-1a2.36,2.36,0,0,0-.12-.28l-.27-.71c-.18-.5-.36-1-.53-1.49-.35-1-.66-2-.93-3,0-.08-.14,0-.12,0,.25,1,.51,2,.81,3,.15.49.3,1,.48,1.45a2.09,2.09,0,0,0,.08.23c-1.58-1.72-3.24-3.39-4.91-5-.06-.06-.15,0-.09.1a88.34,88.34,0,0,1,8.8,10.77,6.51,6.51,0,0,0-.92-.23c-1-.19-1.92-.33-2.89-.45-2-.26-4-.51-6-.83-.08,0-.11.11,0,.13,1.92.38,3.83.81,5.74,1.25.9.2,1.8.38,2.71.56a17.58,17.58,0,0,1,2.18.62l.61.86c.91,1.33,1.78,2.68,2.64,4l-1.27-.25c-1-.18-1.92-.36-2.88-.51-1.9-.32-3.79-.64-5.66-1.07-.08,0-.11.11,0,.12,1.9.45,3.78,1,5.66,1.47.91.24,1.83.47,2.74.67l1.38.3a3.09,3.09,0,0,0,.56.09c1.81,2.94,3.52,5.95,5.09,9,.69,1.35,1.36,2.72,2,4.09s1.23,2.85,1.84,4.28C85.35,269.85,85.81,269.74,85.71,269.42Z" style="fill:#263238"></path><path d="M73,240.9c-.24-1.19-.49-2.37-.75-3.55,0-.08-.14,0-.12,0,.23,1.17.46,2.33.67,3.5s.38,2.34.7,3.48a0,0,0,0,0,0,0A23.93,23.93,0,0,0,73,240.9Z" style="fill:#263238"></path><path d="M65.76,240.55c-.57-.28-1.18-.52-1.78-.75l-.94-.37-.48-.19A2.5,2.5,0,0,1,62,239c-.09-.07-.15.1-.06.11a2,2,0,0,1,.53.22l.47.21.91.4a17.88,17.88,0,0,0,1.83.73A.07.07,0,0,0,65.76,240.55Z" style="fill:#263238"></path><path d="M92.58,247.42s7.52-14,18.94-16.21S130,240.8,130,240.8s-8.34,10.64-18.83,12.5S92.58,247.42,92.58,247.42Z" style="fill:#94FF27"></path><path d="M119.18,237.5a30.93,30.93,0,0,0-9,.11q.25-.15.51-.27l2.54-1.31a59,59,0,0,1,5.36-2.62.07.07,0,1,0,0-.12c-1.79.84-3.64,1.53-5.44,2.36-.89.41-1.77.84-2.65,1.3-.56.3-1.18.58-1.74.94a31.75,31.75,0,0,0-7.26,2.41c.47-.52,1-1,1.43-1.55,1.06-1.17,2.11-2.39,3.28-3.46.06,0,0-.14-.09-.08-1.2,1.08-2.46,2.09-3.62,3.22-.56.54-1.1,1.11-1.63,1.7-.26.29-.52.59-.77.9a30.09,30.09,0,0,0-15.32,20.69c0,.08.1.12.12,0a34.59,34.59,0,0,1,8.4-14.22,32.94,32.94,0,0,1,25.88-9.81A.12.12,0,0,0,119.18,237.5Z" style="fill:#263238"></path><path d="M130,240.8s-8.34,10.65-18.83,12.5c-8,1.42-14.58-2.75-17.25-4.81l-.58-.94s5.41-4.56,15.65-7.2S130,240.8,130,240.8Z" style="opacity:0.1"></path><path d="M112.55,232.5c-.87.53-1.73,1.06-2.54,1.67a16.3,16.3,0,0,0-2.21,2,.07.07,0,0,0,.1.09c.76-.65,1.52-1.31,2.31-1.94a23.93,23.93,0,0,1,2.4-1.73C112.68,232.57,112.62,232.46,112.55,232.5Z" style="fill:#263238"></path><path d="M118.82,234.87c-.43.18-.86.33-1.28.51l-1.27.53c-.09,0,0,.18,0,.15l1.28-.52c.42-.17.84-.37,1.26-.54C118.93,235,118.89,234.84,118.82,234.87Z" style="fill:#263238"></path><path d="M91.09,265.08s2,13.91,12.47,18.78,23.23,0,23.23,0S121.77,253.75,91.09,265.08Z" style="fill:#94FF27"></path><path d="M119.57,274.81c-1-.11-1.92-.27-2.88-.45-.47-.08-.93-.17-1.4-.27l-.74-.14-.85-.79a43,43,0,0,0-6.4-4.64,36.41,36.41,0,0,0-3.83-2h.19l3.45.15c2.3.11,4.59.16,6.89.31a.07.07,0,0,0,0-.13c-2.31-.16-4.6-.41-6.9-.61l-3.35-.3-1.72-.15-.45-.05c-.59-.22-1.19-.43-1.8-.62a16.33,16.33,0,0,0-8.87-.49c-2.63.68-5.26,2.4-5.94,5.18,0,.09.13.16.17.06,1-2.32,3.55-3.48,5.88-4a14.23,14.23,0,0,1,4.74-.09,10.52,10.52,0,0,0,.53,2.11c.29,1,.57,2,.87,2.93.59,2,1.24,3.9,1.82,5.85,0,.08.15.05.13,0-.49-2-.9-3.93-1.37-5.89-.23-1-.47-1.92-.71-2.87a14.91,14.91,0,0,0-.53-2,25,25,0,0,1,2.72.64,40.75,40.75,0,0,1,4.74,1.73c.15,1,.38,2,.6,3,.29,1.23.61,2.44,1,3.65,0,.07.13,0,.12,0a1.89,1.89,0,0,1-.05-.23h0c-.24-1.14-.49-2.27-.73-3.41-.19-.92-.37-1.84-.57-2.75a41.22,41.22,0,0,1,3.81,1.93c0,.28.1.57.14.83.08.48.16,1,.25,1.43.2,1.07.41,2.14.67,3.21A49.39,49.39,0,0,0,111,282a.06.06,0,0,0,0,.08l.06.07c0,.05.12,0,.1-.07-.48-2.06-1-4.1-1.49-6.18-.22-1-.45-2.06-.66-3.1-.1-.52-.2-1-.29-1.56,0-.14,0-.3-.08-.46a43.73,43.73,0,0,1,4.08,2.71,45,45,0,0,1,6.24,5.7c.07.08.22,0,.15-.13-.8-1-1.59-2.07-2.49-3-.53-.56-1.08-1.11-1.63-1.64l.17,0,1.47.22c1,.13,1.94.22,2.91.34C119.62,274.94,119.66,274.82,119.57,274.81Z" style="fill:#263238"></path><path d="M112.22,279.53h0l-.06-.36c0-.16-.11-.3-.13-.46h0c-.22-.93-.4-1.87-.57-2.81,0-.07-.11,0-.11,0a11.11,11.11,0,0,0,.8,3.63s.08,0,.07,0Z" style="fill:#263238"></path><path d="M103.46,279.31a.06.06,0,0,0-.06-.06c-.3-1.24-.58-2.47-.83-3.71-.14-.65-.27-1.3-.4-2-.07-.35-.13-.7-.19-1.06a3.5,3.5,0,0,0-.23-.9.07.07,0,0,0-.12,0,6.36,6.36,0,0,0,.27,1.87c.12.67.26,1.35.41,2,.3,1.37.64,2.74,1,4.09,0,.08.15.06.14,0Z" style="fill:#263238"></path><path d="M118.62,270.8c-1.91-.26-3.82-.54-5.74-.77-.08,0-.11.11,0,.13,1.91.28,3.83.51,5.74.77C118.67,270.94,118.7,270.81,118.62,270.8Z" style="fill:#263238"></path><path d="M85.72,232.43s-6.4-28.1,23.79-39.47C109.51,193,117.87,230,85.72,232.43Z" style="fill:#94FF27"></path><path d="M92.24,216.5c.11-.08.22-.14.32-.2.58-.31,1.14-.64,1.71-1l3.5-2c2.31-1.29,4.58-2.63,6.9-3.89.07,0,0-.15-.07-.11-2.32,1.26-4.69,2.44-7,3.68l-3.46,1.83-1.42.75c1-1.91,2.08-3.79,3.27-5.59,1.57-2.41,3.3-4.7,5.1-6.94a.1.1,0,1,0-.15-.14,48.29,48.29,0,0,0-7,8.55,2.81,2.81,0,0,0,0-.29c0-.7.06-1.4.07-2.1,0-1.37,0-2.74,0-4.11,0-.08-.12-.08-.13,0,0,1.35-.22,2.7-.29,4.05,0,.67-.07,1.34-.09,2,0,.36,0,.78,0,1.18-.62,1-1.22,2-1.79,3A53.22,53.22,0,0,0,89,220.94c0-.7-.08-1.39-.12-2.09-.09-1.54-.28-3.07-.34-4.61a.07.07,0,0,0-.13,0c0,1.54,0,3.08,0,4.62,0,.77,0,1.53.1,2.3,0,.29,0,.57,0,.86a50.85,50.85,0,0,0-2.28,7.72,81.18,81.18,0,0,0-1.12,8.49s0,0,0,0a45.51,45.51,0,0,1,1.6-7.57c.37-1.33.77-2.64,1.19-3.95,1.26-.6,2.46-1.33,3.67-2l3.79-2.07c2.52-1.38,5-2.79,7.63-4,.08,0,0-.14-.06-.11-2.64,1.2-5.29,2.33-7.87,3.63-1.29.64-2.55,1.33-3.81,2-1,.59-2.12,1.18-3.13,1.86.3-.87.6-1.74.94-2.6A74.14,74.14,0,0,1,92.24,216.5Z" style="fill:#263238"></path><path d="M89.7,210.07c0-.08-.14-.08-.13,0,.11,1.6.16,3.2.33,4.8a.07.07,0,0,0,.14,0C90,213.27,89.81,211.68,89.7,210.07Z" style="fill:#263238"></path><path d="M104.17,215.44c-1.89.76-3.8,1.48-5.68,2.27,0,0,0,.11,0,.09,1.91-.72,3.79-1.5,5.69-2.24C104.28,215.53,104.25,215.41,104.17,215.44Z" style="fill:#263238"></path><path d="M107,202.48a49.44,49.44,0,0,0-5.37,2.88.08.08,0,0,0,.08.14c1.76-1,3.54-2,5.36-2.91C107.18,202.55,107.11,202.45,107,202.48Z" style="fill:#263238"></path><rect x="63.05" y="293.19" width="43.54" height="45.89" style="fill:#37474f"></rect><rect x="60.05" y="309.43" width="2.23" height="78.61" style="fill:#263238"></rect><rect x="107.12" y="309.43" width="2.23" height="78.61" style="fill:#263238"></rect><rect x="84.77" y="309.43" width="2.23" height="78.61" style="fill:#263238"></rect><rect x="61.16" y="336.14" width="47.07" height="6.35" style="fill:#263238"></rect></g><g id="freepik--character-1--inject-318"><path d="M242.92,457c-2.25.73-66.39-.1-68.81-1.69-.93-.58-1.35-9.94-1.54-21.25v-.36c0-2.33-.08-4.73-.08-7.16,0-.34,0-.67,0-1-.09-16.33.17-33.27.17-33.27l42.9.43-1.29,33,0,1.3-.26,6.83,0,.7s24.41,11.3,26.88,13.32S245.17,456.29,242.92,457Z" style="fill:#eb9481"></path><path d="M223.65,438.87q-.26-.08-.27-.15Z" style="fill:#94FF27"></path><path d="M242.92,457c-2.25.72-66.39-.1-68.81-1.69-.83-.52-1.26-8-1.47-17.56,11.75,2.45,57.3,11.66,58.54,7.77.49-1.53-3.4-4.18-5.87-5.67,6.74,3.21,14.19,6.88,15.51,8C243.27,449.82,245.17,456.28,242.92,457Z" style="fill:#263238"></path><path d="M159.48,207.5s9.63,108.38,11.2,116.65c.36,1.89.59,12.13.74,25.3.33,28.72.13,80.54.13,80.54h45.21s-1.34-89.78-3.34-106.3S198.63,207.5,198.63,207.5Z" style="fill:#455a64"></path><path d="M214.72,422.11c-7.05-.14-5-.2-12.08-.27-3.46,0-26.15-.23-29.37.31a.07.07,0,0,0,0,.14c3.23.53,25.91.34,29.37.3,7.05-.07,5-.12,12.08-.27C214.85,422.32,214.85,422.12,214.72,422.11Z" style="fill:#263238"></path><path d="M180.14,370.79q-.07-9.84-.14-19.67c-.05-6.35,0-12.71-.34-19.06-.61-12.84-3.22-25.48-5.08-38.18s-3.4-25.46-4.8-38.23c-1.57-14.33-3-28.67-4.43-43,0-.1-.16-.1-.15,0,2.13,25.59,4.51,51.18,8.05,76.62q1.32,9.5,2.89,19c1.05,6.38,2.1,12.77,2.61,19.22s.57,12.65.63,19q.1,9.84.2,19.66c.14,14.56.28,37,.42,51.52a.22.22,0,0,0,.44,0C180.34,404.61,180.24,383.78,180.14,370.79Z" style="fill:#263238"></path><path d="M150,207.5s19.16,108.38,20.73,116.65c.36,1.89.59,12.13.74,25.3v0L193,207.5Z" style="fill:#263238"></path><path d="M128.16,460.49c-2.28-.63-55.48-36.47-56.64-39.12-.45-1,4.32-9.05,10.36-18.62l.19-.3c1.24-2,2.53-4,3.86-6,.19-.28.37-.56.54-.85,8.88-13.71,18.38-27.74,18.38-27.74l35.65,23.87-19.14,26.87-.75,1.06-4,5.57-.4.57s14.22,22.83,15.19,25.88S130.43,461.12,128.16,460.49Z" style="fill:#eb9481"></path><path d="M122.83,435.22c-.1-.12-.15-.2-.14-.24Z" style="fill:#94FF27"></path><path d="M128.15,460.49c-2.28-.62-55.47-36.47-56.63-39.12-.39-.85,3-6.86,7.81-14.55,7.41,7,43.23,40.77,46.42,38,.68-.58.4-2.16-.21-3.88,2.92,4.91,5.51,9.41,5.9,10.66C132.39,454.67,130.43,461.12,128.15,460.49Z" style="fill:#263238"></path><path d="M120.85,425.8,82.27,398s49.9-66.6,50.13-72.69c.34-9.06,4.68-46.44,8.33-76.71,0,0-6.92-16.38,6-41.14h51.9S195.19,231,189.23,246a69.35,69.35,0,0,0-11.54,5.27s-4.29,73.87-5.58,82.19C168.69,355.43,120.85,425.8,120.85,425.8Z" style="fill:#455a64"></path><path d="M123.53,416.42c-5.69-4.17-4-3.06-9.74-7.16-2.81-2-21.28-15.19-24.22-16.61-.07,0-.14.07-.09.12,2.34,2.29,21,15.15,23.88,17.1,5.82,4,4.19,2.79,10,6.72A.1.1,0,0,0,123.53,416.42Z" style="fill:#263238"></path><path d="M149.19,229.55c1.17-.3,2.44-.39,3.64-.58,1-.16,1.94-.33,2.9-.54a12.72,12.72,0,0,0,5.11-2.15c1.66-1.3,2.51-3.27,3.32-5.16.47-1.12,1-2.23,1.47-3.34.24-.54.48-1.08.73-1.62a16.13,16.13,0,0,0,.91-1.93c0-.1.19,0,.15,0a13.79,13.79,0,0,0-.41,1.39c-.17.55-.32,1.09-.49,1.63-.3,1-.59,1.93-.9,2.89a23.44,23.44,0,0,1-2.05,5.06c-1.78,2.83-5,4-8.13,4.37-.91.12-1.83.18-2.75.23a19.15,19.15,0,0,1-3.47,0A.16.16,0,0,1,149.19,229.55Z" style="fill:#263238"></path><path d="M191.2,244.93a86.33,86.33,0,0,0-13.51,6.29c-.17.1-.06.36.12.28,4.56-1.95,9.2-3.82,13.64-6A.3.3,0,0,0,191.2,244.93Z" style="fill:#263238"></path><path d="M192.65,213.7c0-.16-.29-.19-.29,0,0,5.4-.31,10.15-.76,15.2-.22,2.35-2.1,15.3-6.17,14.36-.68-.16-1-.83-1.13-1.85a16,16,0,0,1,.54-4c.45-2.71.81-5.43,1-8.17a74.1,74.1,0,0,0-.16-15.33.13.13,0,0,0-.26,0,141.26,141.26,0,0,1-1.24,21.16c-.51,3.36-2.21,8.44,1.32,9s5.91-8,6.35-10.3A77.81,77.81,0,0,0,192.65,213.7Z" style="fill:#263238"></path><path d="M185.54,243.59a21.13,21.13,0,0,0-.91,2.68,6,6,0,0,0-.38,2.21c0,.14.2.16.28.06a7.4,7.4,0,0,0,.94-2.15c.31-.83.64-1.65.93-2.49A.46.46,0,0,0,185.54,243.59Z" style="fill:#263238"></path><path d="M150.56,211a58.34,58.34,0,0,0-3.45,8.94,61.12,61.12,0,0,0-2,9.35,48.9,48.9,0,0,0-.38,9.52,41.21,41.21,0,0,0,1.66,9.36l0,.06v.06q-1.73,19.41-3.69,38.78c-1.32,12.93-2.56,25.84-4.34,38.73-.1.81-.29,1.63-.43,2.44a11.72,11.72,0,0,1-1,2.33c-.78,1.45-1.64,2.83-2.49,4.22-1.73,2.76-3.52,5.47-5.32,8.17-3.62,5.4-7.35,10.71-11.09,16-7.47,10.63-15.12,21.12-22.82,31.58q11.24-15.92,22.28-31.95,5.52-8,10.92-16.12c1.79-2.71,3.56-5.42,5.27-8.17.84-1.38,1.69-2.76,2.44-4.18A10.29,10.29,0,0,0,137,328c.14-.79.31-1.54.41-2.36.89-6.4,1.56-12.87,2.27-19.32l2.07-19.36,4-38.75v.13a41.65,41.65,0,0,1-1.59-9.52,46.83,46.83,0,0,1,.55-9.61,62.31,62.31,0,0,1,2.22-9.35A59.57,59.57,0,0,1,150.56,211Z" style="fill:#263238"></path><path d="M193.85,114.71c-2.57-4.83-8.41-7.24-14.59-7.52s-13.92.87-16.88,10.11c-2.41,7.5-1.76,15.53-3.89,24s-17.28,26.83-3.6,40.82c12.28,12.56,43.76,11.27,49.26-7.22,4.36-14.67-10.71-32.8-11.21-39.14S196.68,120,193.85,114.71Z" style="fill:#263238"></path><path d="M194.45,123.72a32.58,32.58,0,0,0-.48,13.17,12.33,12.33,0,0,0,1.14,3.25c.51,1,1.07,2,1.62,3,1.14,2,2.27,3.9,3.29,5.88a44.32,44.32,0,0,1,4.49,12.37,33.07,33.07,0,0,1-.2,13,28.14,28.14,0,0,0,1.38-6.43,31.53,31.53,0,0,0-.19-6.65,39.48,39.48,0,0,0-4.3-12.75c-1-2-2.21-4-3.37-5.91a22.41,22.41,0,0,1-2.85-5.9,27.37,27.37,0,0,1-.78-6.45A51.08,51.08,0,0,1,194.45,123.72Z" style="fill:#263238"></path><path d="M161.22,123.81c-.95,4.35-1.73,8.74-2.91,13a52.56,52.56,0,0,1-2.13,6.27c-.85,2-2,3.93-3.08,5.91s-2.08,4-3,6.08a36.12,36.12,0,0,0-2,6.45,22.92,22.92,0,0,0-.31,6.77,16.57,16.57,0,0,0,2.44,6.39,17.57,17.57,0,0,1-1.8-6.43,22.36,22.36,0,0,1,.66-6.52,54.92,54.92,0,0,1,5.21-12.17c1-2,2.2-3.91,3.06-6a41.34,41.34,0,0,0,1.95-6.46A104.46,104.46,0,0,0,161.22,123.81Z" style="fill:#263238"></path><path d="M191.11,157.45c18.16,1.81,38.87-1.19,43.82-6.44,5.74-6.08,15.3-30.91,17.47-48.31.47-3.81-28.5-5.19-28.55-2.5-.16,9.25-9.17,33.91-9.82,35.23-.75,1.51-14.44,6.83-23.79,9.39C175.51,148.85,178.25,156.17,191.11,157.45Z" style="fill:#eb9481"></path><path d="M229.45,156.11l-16.72-20.4s-13.24,4.36-26.53,10-9.33,11.16,8.71,13.13A101.7,101.7,0,0,0,229.45,156.11Z" style="fill:#94FF27"></path><path d="M193.12,154.94a1.52,1.52,0,1,0,1.52,1.52A1.52,1.52,0,0,0,193.12,154.94Zm0,2.74a1.22,1.22,0,1,1,1.22-1.22A1.22,1.22,0,0,1,193.12,157.68Zm13.7-2.58a1.54,1.54,0,0,0-1.53,1.53,1.52,1.52,0,0,0,1.53,1.51,1.5,1.5,0,0,0,1.51-1.51A1.52,1.52,0,0,0,206.82,155.1Zm0,2.75a1.23,1.23,0,1,1,1.22-1.22A1.23,1.23,0,0,1,206.82,157.85Zm-6.63-8.74a1.52,1.52,0,1,0,0,3,1.52,1.52,0,0,0,0-3Zm0,2.74a1.22,1.22,0,0,1-1.23-1.22,1.23,1.23,0,1,1,2.45,0A1.22,1.22,0,0,1,200.19,151.85Zm12.65-3a1.53,1.53,0,0,0-1.52,1.53,1.52,1.52,0,0,0,3,0A1.53,1.53,0,0,0,212.84,148.81Zm0,2.75a1.23,1.23,0,1,1,0-2.45,1.23,1.23,0,0,1,0,2.45Zm7.95,2.85a1.54,1.54,0,0,0-1.53,1.53,1.53,1.53,0,1,0,1.53-1.53Zm0,2.75a1.23,1.23,0,1,1,1.22-1.22A1.23,1.23,0,0,1,220.79,157.16Zm4.57-6a1.15,1.15,0,0,1-.92.44,1.23,1.23,0,0,1-1.23-1.22,1.21,1.21,0,0,1,.64-1.07l-.2-.23a1.52,1.52,0,1,0,1.91,2.32Zm-19.15-8.53a1.52,1.52,0,1,0,0,3,1.52,1.52,0,0,0,0-3Zm0,2.74a1.22,1.22,0,0,1-1.23-1.22,1.22,1.22,0,1,1,2.44,0A1.21,1.21,0,0,1,206.21,145.33Zm14-.49a1.17,1.17,0,0,1-.66.2,1.22,1.22,0,0,1-.88-2.07l-.19-.24a1.54,1.54,0,0,0-.45,1.09,1.51,1.51,0,0,0,1.52,1.51,1.44,1.44,0,0,0,.84-.26Zm-6.34-7.72h0l-.43-.52a1.26,1.26,0,0,1,.15.59,1.23,1.23,0,1,1-1.22-1.23,1.19,1.19,0,0,1,.8.31l-.45-.55-1.53.51a1.49,1.49,0,0,0-.35,1,1.53,1.53,0,0,0,1.53,1.52,1.51,1.51,0,0,0,1.51-1.52A.13.13,0,0,0,213.88,137.12ZM193.05,143a1.45,1.45,0,0,0-.59.12,1.54,1.54,0,0,0-.94,1.41,1.52,1.52,0,0,0,1.53,1.51,1.5,1.5,0,0,0,1.51-1.51A1.52,1.52,0,0,0,193.05,143Zm0,2.75a1.23,1.23,0,1,1,1.22-1.22A1.23,1.23,0,0,1,193.05,145.76Zm-7,3.05a1.52,1.52,0,1,0,1.52,1.53A1.53,1.53,0,0,0,186,148.81Zm0,2.75a1.23,1.23,0,1,1,1.23-1.22A1.24,1.24,0,0,1,186,151.56Z" style="fill:#fff"></path><path d="M221,155.25a189.52,189.52,0,0,1-12.89-16.61c0-.06.07-.13.12-.06,1,1.4,8.37,10.19,12.9,16.6C221.2,155.25,221.08,155.31,221,155.25Z" style="fill:#263238"></path><path d="M219.05,143.42l10.4,12.69a101.7,101.7,0,0,1-34.54,2.71c-6.6-.72-11.31-1.92-14-3.42Z" style="opacity:0.1"></path><path d="M231.47,105.31c-1.12-2.86-6.67-19-7.35-23-1.25-7.31-.93-15.14,1.94-16.33,2.29-.94,4.24,3,4.24,3s.81-4.91,3.94-5.15S237.58,69,237.58,69s1.2-5,4.34-5,2.46,5.36,2.46,5.36.89-4.6,3.48-3.53c3.12,1.29.53,9.6,1.16,14,.09.68,3.23,10.8,4.08,17.69a11.81,11.81,0,0,1-1.12,6.31Z" style="fill:#eb9481"></path><path d="M244.7,69.17c-1.88,6.11-1.65,9.11,0,15.2,0,.12-.14.19-.18.07-2.15-5.81-3-9.53-.1-15.38C244.55,68.77,244.79,68.88,244.7,69.17Z" style="fill:#263238"></path><path d="M237.78,68.68c-.86,6.62-.37,9.85,1.4,16.22,0,.09-.12.14-.15,0-2.27-6.1-3.32-9.76-1.59-16.26C237.52,68.4,237.82,68.38,237.78,68.68Z" style="fill:#263238"></path><path d="M230.36,69.28c-.21,6.47.27,10,2.95,15.92a.12.12,0,0,1-.21.11c-3.32-5.75-3.95-10.18-2.94-16C230.23,68.89,230.37,68.87,230.36,69.28Z" style="fill:#263238"></path><path d="M228.66,106.87s-5.93-5.4-8-8.34-5.82-16.77-2.87-17.75c3.79-1.26,7.52,6.3,8.86,10.24,0,0,8.78-2.92,12.63,1.92S228.66,106.87,228.66,106.87Z" style="fill:#eb9481"></path><path d="M225.52,88.24c.49.88.93,1.78,1.37,2.68l-.32-.17a17.66,17.66,0,0,1,4.27-.65,19.5,19.5,0,0,1,4.31.35,15.27,15.27,0,0,1,4.1,1.39,13.93,13.93,0,0,1,3.5,2.47A23.93,23.93,0,0,0,239,92.49a20.47,20.47,0,0,0-4-1.08,27,27,0,0,0-8.27-.12l-.26,0-.07-.21C226.08,90.17,225.78,89.21,225.52,88.24Z" style="fill:#263238"></path><path d="M198.66,190.84l0,16.66-51.87,0s7.23-42.12,21.57-56.61c7.18-7.25,15.26-6.4,20.24-1,1.26,1.37,12,19.28,13.34,27.21C203.1,184.09,198.66,190.84,198.66,190.84Z" style="fill:#94FF27"></path><path d="M169.57,173.4a1.53,1.53,0,0,0-1.52,1.53,1.53,1.53,0,0,0,3,0A1.54,1.54,0,0,0,169.57,173.4Zm0,2.75a1.23,1.23,0,1,1,1.22-1.22A1.22,1.22,0,0,1,169.57,176.15ZM186,148.81a1.52,1.52,0,1,0,1.52,1.53A1.53,1.53,0,0,0,186,148.81Zm0,2.75a1.23,1.23,0,1,1,1.23-1.22A1.24,1.24,0,0,1,186,151.56Zm-6.39,3.68a1.52,1.52,0,0,0,0,3,1.52,1.52,0,1,0,0-3Zm0,2.74a1.23,1.23,0,1,1,1.23-1.22A1.22,1.22,0,0,1,179.65,158Zm-28.26,38.53a1.53,1.53,0,0,0,0,3.05,1.53,1.53,0,1,0,0-3.05Zm0,2.75a1.23,1.23,0,1,1,1.23-1.23A1.22,1.22,0,0,1,151.39,199.26Zm15.05-2.33a1.51,1.51,0,0,0-1.52,1.51,1.52,1.52,0,1,0,3,0A1.51,1.51,0,0,0,166.44,196.93Zm0,2.74a1.23,1.23,0,0,1,0-2.45,1.23,1.23,0,1,1,0,2.45ZM152.36,184l-.09.28a1.2,1.2,0,0,1,.69,1.1,1.23,1.23,0,0,1-1.22,1.23.25.25,0,0,1-.12,0h0l-.08.29a.75.75,0,0,0,.21,0,1.52,1.52,0,0,0,1.52-1.52A1.5,1.5,0,0,0,152.36,184Zm8.58-4.31a1.52,1.52,0,1,0,1.53,1.52A1.52,1.52,0,0,0,160.94,179.64Zm0,2.75a1.23,1.23,0,0,1-1.21-1.23,1.22,1.22,0,1,1,2.44,0A1.24,1.24,0,0,1,160.94,182.39Zm33.82,8.44a1.52,1.52,0,1,0,0,3,1.52,1.52,0,0,0,0-3Zm0,2.74a1.22,1.22,0,1,1,1.22-1.21A1.23,1.23,0,0,1,194.76,193.57Zm0,9.13a1.52,1.52,0,1,0,0,3,1.52,1.52,0,0,0,0-3Zm0,2.75a1.23,1.23,0,1,1,1.22-1.22A1.23,1.23,0,0,1,194.76,205.45Zm-8.48-19.88a1.53,1.53,0,1,0,1.52,1.53A1.53,1.53,0,0,0,186.28,185.57Zm0,2.75a1.23,1.23,0,1,1,1.22-1.22A1.23,1.23,0,0,1,186.28,188.32Zm7.09-30.66h0l-.24,0a1.22,1.22,0,0,1-.91-2c-.05-.1-.11-.19-.16-.28a1.54,1.54,0,0,0-.45,1.09,1.51,1.51,0,0,0,1.52,1.52,1.23,1.23,0,0,0,.39-.06Zm-6.56,4a1.52,1.52,0,1,0,1.52,1.52A1.52,1.52,0,0,0,186.81,161.68Zm0,2.74a1.22,1.22,0,0,1-1.22-1.22,1.22,1.22,0,1,1,2.44,0A1.21,1.21,0,0,1,186.81,164.42Zm7.95,3.61a1.52,1.52,0,1,0,0,3,1.52,1.52,0,0,0,0-3Zm0,2.74a1.22,1.22,0,0,1-1.23-1.22,1.23,1.23,0,1,1,2.45,0A1.22,1.22,0,0,1,194.76,170.77ZM178.44,168a1.52,1.52,0,1,0,1.52,1.52A1.53,1.53,0,0,0,178.44,168Zm0,2.74a1.22,1.22,0,0,1-1.23-1.22,1.23,1.23,0,1,1,2.45,0A1.21,1.21,0,0,1,178.44,170.77Zm-6.28-22a1.52,1.52,0,1,0,1.53,1.53A1.53,1.53,0,0,0,172.16,148.81Zm0,2.75a1.23,1.23,0,1,1,1.22-1.22A1.23,1.23,0,0,1,172.16,151.56Zm-1.22,9.26a1.52,1.52,0,1,0,1.53,1.53A1.53,1.53,0,0,0,170.94,160.82Zm0,2.75a1.23,1.23,0,1,1,1.22-1.22A1.23,1.23,0,0,1,170.94,163.57Zm15.82,33a1.52,1.52,0,0,0,0,3,1.52,1.52,0,1,0,0-3Zm0,2.74A1.23,1.23,0,1,1,188,198,1.22,1.22,0,0,1,186.76,199.26Zm-17.19-13.69a1.53,1.53,0,1,0,1.53,1.53A1.53,1.53,0,0,0,169.57,185.57Zm0,2.75a1.23,1.23,0,1,1,1.22-1.22A1.22,1.22,0,0,1,169.57,188.32Zm8.51-8.33a1.52,1.52,0,1,0,0,3,1.52,1.52,0,0,0,0-3Zm0,2.74a1.22,1.22,0,1,1,1.21-1.22A1.23,1.23,0,0,1,178.08,182.73Zm17-3.09a1.53,1.53,0,0,0-1.52,1.53,1.52,1.52,0,0,0,3,0A1.53,1.53,0,0,0,195.05,179.64Zm0,2.75a1.23,1.23,0,1,1,0-2.45,1.23,1.23,0,0,1,0,2.45Zm-9-9a1.54,1.54,0,0,0-1.53,1.53,1.52,1.52,0,0,0,1.53,1.51,1.5,1.5,0,0,0,1.51-1.51A1.52,1.52,0,0,0,186.05,173.4Zm0,2.75a1.23,1.23,0,1,1,1.22-1.22A1.23,1.23,0,0,1,186.05,176.15Zm-23.87-9.64A1.52,1.52,0,1,0,163.7,168,1.53,1.53,0,0,0,162.18,166.51Zm0,2.74A1.22,1.22,0,0,1,161,168a1.23,1.23,0,1,1,1.23,1.22Zm2.67-14.17-.24.33a.49.49,0,0,1,0,.12,1.22,1.22,0,0,1-.85,1.16c-.08.11-.15.23-.22.34a1.5,1.5,0,0,0,1.37-1.5A1.33,1.33,0,0,0,164.85,155.08Zm11,47.62a1.52,1.52,0,1,0,1.52,1.52A1.52,1.52,0,0,0,175.89,202.7Zm0,2.75a1.24,1.24,0,0,1-1.23-1.23,1.23,1.23,0,0,1,1.23-1.22,1.21,1.21,0,0,1,1.22,1.22A1.23,1.23,0,0,1,175.89,205.45ZM177,191.16a1.52,1.52,0,0,0-1.53,1.51,1.53,1.53,0,1,0,3.05,0A1.51,1.51,0,0,0,177,191.16Zm0,2.74a1.23,1.23,0,1,1,1.22-1.23A1.23,1.23,0,0,1,177,193.9Zm-18.95,9.73a1.52,1.52,0,0,0-1.52,1.51,1.53,1.53,0,1,0,1.52-1.51Zm0,2.74a1.23,1.23,0,1,1,1.23-1.23A1.23,1.23,0,0,1,158.05,206.37Zm1.52-15.84a1.52,1.52,0,1,0,1.53,1.52A1.53,1.53,0,0,0,159.57,190.53Zm0,2.75a1.24,1.24,0,0,1-1.22-1.23,1.23,1.23,0,1,1,1.22,1.23Z" style="fill:#fff"></path><path d="M178.62,188.76a62.24,62.24,0,0,1,9.16-.16c1.51.11,3,.29,4.52.5.75.1,1.5.18,2.25.26a9.4,9.4,0,0,0,2.37,0c.07,0,.09.1,0,.11a15,15,0,0,1-2.21.36,15.86,15.86,0,0,1-2.18,0c-1.54-.1-3.07-.26-4.61-.37-3.1-.23-6.2-.45-9.32-.45C178.48,189,178.47,188.77,178.62,188.76Z" style="fill:#263238"></path><path d="M171.69,192.76a66.17,66.17,0,0,1,7.37-1.71c1.24-.21,2.49-.35,3.75-.45l1.8-.12c.67,0,1.33,0,2,0,.06,0,.08.1,0,.11-.62.06-1.23.22-1.85.32l-1.87.29c-1.24.19-2.48.4-3.72.58-2.5.37-5,.76-7.45,1.21C171.59,193,171.57,192.79,171.69,192.76Z" style="fill:#263238"></path><path d="M164,152.4c-6.19,3.74-38.47,25-42.1,35.91-5.41,16.24-1.66,36.12-.49,44.89.52,3.83,27,2.64,27.06-1.49.13-8.82-1.72-31.52-.84-34.47s17-25,25.34-35.6C184.18,147.4,179.07,143.31,164,152.4Z" style="fill:#eb9481"></path><path d="M147.32,230s5.62,9,7.1,14.65a37.49,37.49,0,0,1-.17,17.94c-1.6,6.35-9.88,20.6-14.4,18.93C135.76,280,145,265.84,145,265.84s-7,16-11.59,13.23,7-18.52,7-18.52-7.56,16.23-11.85,12.68c-3.24-2.69,6.46-17.59,6.46-17.59s-6.59,13.9-10,11.28c-3.81-2.89,4.28-17.21,4.28-17.21-7.65-8.14-8.57-16.58-7.36-20.51C122.24,228,147.32,230,147.32,230Z" style="fill:#eb9481"></path><path d="M147.73,260.47c-.75,1.91-1.5,3.84-2.42,5.67s-1.91,3.63-3,5.37a34.32,34.32,0,0,1-4.87,6.35c3.05-3.66,6.45-10.16,7.37-12s1.93-3.61,2.85-5.43C147.68,260.39,147.75,260.43,147.73,260.47Z" style="fill:#263238"></path><path d="M141.18,257c-1.07,2.39-2,4.8-3.21,7.14s-2.48,4.45-3.81,6.69c-.1.17-.16.06-.06-.12,1.23-2.29,2.19-4.51,3.4-6.82s2.51-4.58,3.63-6.92C141.14,257,141.2,257,141.18,257Z" style="fill:#263238"></path><path d="M136.09,253.06a58.3,58.3,0,0,1-5.75,10.55c-.11.17-.17,0-.07-.16,2-3.47,3.56-6.18,5.69-10.44C136,253,136.12,253,136.09,253.06Z" style="fill:#263238"></path><path d="M137.15,169l24.33,8.29s7.93-8.79,16.38-20.49-1.25-12.36-10.6-7.54A195.78,195.78,0,0,0,137.15,169Z" style="fill:#94FF27"></path><path d="M153.07,171.84a1.54,1.54,0,0,0-1.53,1.53,1.46,1.46,0,0,0,.11.55l.41.14a1.18,1.18,0,0,1-.22-.69,1.23,1.23,0,1,1,2.45,0,1.22,1.22,0,0,1-.86,1.16l.41.14a1.49,1.49,0,0,0,.75-1.3A1.53,1.53,0,0,0,153.07,171.84Zm1.21-12.25a1.53,1.53,0,1,0,1.53,1.53A1.54,1.54,0,0,0,154.28,159.59Zm0,2.75a1.23,1.23,0,1,1,1.23-1.22A1.22,1.22,0,0,1,154.28,162.34Zm23.95-6.09c.15-.21.29-.42.42-.62A1.35,1.35,0,0,0,178.23,156.25Zm-6.07-7.44a1.52,1.52,0,1,0,1.53,1.53A1.53,1.53,0,0,0,172.16,148.81Zm0,2.75a1.23,1.23,0,1,1,1.22-1.22A1.23,1.23,0,0,1,172.16,151.56Zm-1.22,9.26a1.52,1.52,0,1,0,1.53,1.53A1.53,1.53,0,0,0,170.94,160.82Zm0,2.75a1.23,1.23,0,1,1,1.22-1.22A1.23,1.23,0,0,1,170.94,163.57Zm-24.6,1.71a1.54,1.54,0,0,0-1.53,1.53,1.52,1.52,0,1,0,1.53-1.53Zm0,2.75a1.23,1.23,0,1,1,1.22-1.22A1.23,1.23,0,0,1,146.34,168Zm15.84-1.52A1.52,1.52,0,1,0,163.7,168,1.53,1.53,0,0,0,162.18,166.51Zm0,2.74A1.22,1.22,0,0,1,161,168a1.23,1.23,0,1,1,1.23,1.22ZM163.39,154a1.52,1.52,0,0,0,0,3,1.52,1.52,0,1,0,0-3Zm0,2.75a1.23,1.23,0,0,1-1.22-1.23,1.23,1.23,0,0,1,2.45,0A1.24,1.24,0,0,1,163.39,156.76Z" style="fill:#fff"></path><path d="M163.1,172.81a192.16,192.16,0,0,1-19.91-6.73c-.08,0,0-.15.07-.12,1.58.63,12.6,3.87,19.91,6.72C163.26,172.71,163.19,172.83,163.1,172.81Z" style="fill:#263238"></path><path d="M173.72,164.74c-.58.46-1.14.94-1.72,1.4l-.38.31c1.35-1.77,2.66-3.58,3.92-5.41,0,0,0-.09-.07,0-2.32,2.72-4.67,5.43-7,8.18s-4.69,5.28-6.79,8.1l-1.13-.35a.09.09,0,0,0-.06.17l1.19.59a.18.18,0,0,0,.2,0,78.71,78.71,0,0,0,7.12-7.92c.62-.75,1.23-1.52,1.83-2.29l.14-.11.58-.48c.77-.64,1.49-1.32,2.19-2C173.82,164.77,173.77,164.7,173.72,164.74Z" style="fill:#263238"></path><path d="M176.79,150c.41,1,6.38,6.58,10.91,5.52,1.48-.34,0-8.48,0-8.48l0-.63.34-8.77L177,133.11l-1.58-.58s.06,2.4.17,5.4c0,.14,0,.28,0,.43s0,.33,0,.48c0,.45,0,.91,0,1.36s0,.69.06,1.05,0,.72.07,1.08A55.19,55.19,0,0,0,176.79,150Z" style="fill:#eb9481"></path><path d="M175.55,137.93a17.59,17.59,0,0,0,12.13,8.49l.34-8.77L177,133.11l-1.58-.58S175.44,134.93,175.55,137.93Z" style="fill:#263238"></path><path d="M198.48,123.39c3.53,15-5,18.81-8.29,19.57-2.93.69-13,2.66-18.08-11.89s.78-20.94,7.42-22.87S194.94,108.4,198.48,123.39Z" style="fill:#eb9481"></path><path d="M195.63,120.2a9.38,9.38,0,0,1-1.06,0,1.64,1.64,0,0,1-1.09-.18.54.54,0,0,1-.15-.65,1.37,1.37,0,0,1,1.23-.62,2.06,2.06,0,0,1,1.38.4A.59.59,0,0,1,195.63,120.2Z" style="fill:#263238"></path><path d="M185.8,122.58a8.39,8.39,0,0,0,1-.45,1.74,1.74,0,0,0,.9-.65.56.56,0,0,0-.16-.65,1.36,1.36,0,0,0-1.38,0,1.94,1.94,0,0,0-1.05,1A.58.58,0,0,0,185.8,122.58Z" style="fill:#263238"></path><path d="M186.7,126.38a1.34,1.34,0,0,1-.21.3.67.67,0,0,1-.54.22c-.62,0-.93-.63-1-1.26,0,0,0-.07,0,0,.28.3.61.6,1,.52a1.31,1.31,0,0,0,.59-.49A3.16,3.16,0,0,0,186.7,126.38Z" style="fill:#263238"></path><path d="M186.43,126.24a1.53,1.53,0,0,1,.18-.84,1.15,1.15,0,0,1,.74-.55,1.06,1.06,0,0,1,.91.25,1.88,1.88,0,0,1,.47.7,3.94,3.94,0,0,1,.14.49,2.28,2.28,0,0,1,0,1,3,3,0,0,0-.2-.73,4,4,0,0,0-.29-.63c-.23-.41-.57-.72-.91-.62s-.58.43-.63.9a7.28,7.28,0,0,0,0,1.47A3.3,3.3,0,0,1,186.43,126.24Z" style="fill:#263238"></path><path d="M196.45,124a1.32,1.32,0,0,0,.35.15.69.69,0,0,0,.57-.09c.52-.34.46-1,.21-1.62,0,0-.05,0-.06,0-.08.4-.2.84-.55,1a1.26,1.26,0,0,1-.75-.11A3.25,3.25,0,0,1,196.45,124Z" style="fill:#263238"></path><path d="M196.61,123.78a1.52,1.52,0,0,0-.59-.62,1.17,1.17,0,0,0-.92-.08,1,1,0,0,0-.64.69,1.85,1.85,0,0,0,0,.84,2.75,2.75,0,0,0,.14.49,2.42,2.42,0,0,0,.55.89,3.35,3.35,0,0,1-.21-.73,4.17,4.17,0,0,1-.08-.69c0-.47.11-.91.46-1s.71.07,1,.44a6.82,6.82,0,0,1,.74,1.27A3.21,3.21,0,0,0,196.61,123.78Z" style="fill:#263238"></path><path d="M190.4,134.07c.29.2.59.49,1,.46a2.81,2.81,0,0,0,1.07-.45s.07,0,.05,0a1.4,1.4,0,0,1-1.21.79,1.1,1.1,0,0,1-1-.77C190.28,134.08,190.36,134,190.4,134.07Z" style="fill:#263238"></path><path d="M193.81,129.39s.57,1.47.74,2.19c0,.07-.16.14-.4.21,0,0,0,0,0,0a3.52,3.52,0,0,1-3.62-.5.08.08,0,0,1,.09-.13,5.28,5.28,0,0,0,3.33.17c0-.21-1-2.5-.94-2.53a6.16,6.16,0,0,1,1.72,0c-1.09-3.11-2.67-6-3.7-9.14,0-.11.12-.18.17-.09a53.22,53.22,0,0,1,4.41,9.67C195.74,129.64,194.13,129.44,193.81,129.39Z" style="fill:#263238"></path><path d="M194,131.31a4.28,4.28,0,0,1-1.18,1.82,2,2,0,0,1-1.08.45c-.88.07-1.15-.65-1.22-1.33a4.23,4.23,0,0,1,0-1.09A5.52,5.52,0,0,0,194,131.31Z" style="fill:#263238"></path><path d="M192.85,133.13a2,2,0,0,1-1.08.45c-.88.07-1.15-.65-1.22-1.33A2,2,0,0,1,192.85,133.13Z" style="fill:#ff9bbc"></path><path d="M188.42,110.92a6.84,6.84,0,0,1-.19,4c-1.65,3.47-5.83,2.57-7.26,3.94s-.86,4-2.07,5.25c-1.68,1.78-4,1.1-4.24,2.3s-1.06,5-2.59,5.51-8.6-24.89,11.39-24.15c0,0,2.74-1.12,7,1,4.7,2.35,6.76,10.07,6.76,10.07s-.1-.1-.78-.7c-1-.85-1.35-1.64-2.05-2.19-1.12-.86-1.73-.53-2.88-1.37A13.15,13.15,0,0,1,188.42,110.92Z" style="fill:#263238"></path><path d="M188.11,109.82a13.27,13.27,0,0,1,.59,3.05,5.61,5.61,0,0,1-.42,3,4.12,4.12,0,0,1-2.29,1.79c-1,.35-2,.46-3,.87a3.12,3.12,0,0,0-1.34,1,4.14,4.14,0,0,0-.58,1.54,5.51,5.51,0,0,1-1.1,2.76,3.47,3.47,0,0,1-2.68,1.14,7.37,7.37,0,0,0-3.1.16,7.34,7.34,0,0,1,3.09.08,3.78,3.78,0,0,0,3-1.11,5.62,5.62,0,0,0,1.27-2.93,3.6,3.6,0,0,1,.53-1.37,2.62,2.62,0,0,1,1.14-.83c.92-.39,2-.51,3-.9a5.33,5.33,0,0,0,1.42-.78,3.22,3.22,0,0,0,1.05-1.26,5.83,5.83,0,0,0,.32-3.16A13.07,13.07,0,0,0,188.11,109.82Z" style="fill:#263238"></path><path d="M188.49,110.73a11,11,0,0,0,1,2.75,5.13,5.13,0,0,0,2,2.2,8.83,8.83,0,0,0,1.38.53,2.29,2.29,0,0,1,1.08.72,7.23,7.23,0,0,0,.88,1.18,3.18,3.18,0,0,0,1.27.73,3.57,3.57,0,0,1-1.1-.9,7.57,7.57,0,0,1-.73-1.22,2.51,2.51,0,0,0-1.23-.94,9.4,9.4,0,0,1-1.31-.53,5.47,5.47,0,0,1-1.91-2A21.91,21.91,0,0,1,188.49,110.73Z" style="fill:#263238"></path><path d="M187.42,131.85a4.62,4.62,0,1,1,3.64-6.33h0a4.64,4.64,0,0,1-2.53,6A4.35,4.35,0,0,1,187.42,131.85Zm-1.2-8.54a3.81,3.81,0,0,0-1,.26,4,4,0,1,0,1-.26Z" style="fill:#94FF27"></path><path d="M197.45,129.14c-1.76.16-3.53-1.49-4-3.85a5.61,5.61,0,0,1,.29-3.37,3.08,3.08,0,0,1,2.13-1.87,3,3,0,0,1,2.69.86,5.43,5.43,0,0,1,1.63,3c.52,2.5-.56,4.84-2.41,5.24Zm-1.25-8.52-.24,0a2.46,2.46,0,0,0-1.68,1.52,4.8,4.8,0,0,0-.25,3c.46,2.16,2.06,3.66,3.59,3.33s2.39-2.34,1.93-4.5a4.91,4.91,0,0,0-1.43-2.63A2.54,2.54,0,0,0,196.2,120.62Z" style="fill:#94FF27"></path><path d="M191,126.08l-.5-.36c.53-.75,1.89-1.92,3.29-1l-.33.52C192.25,124.41,191.09,126,191,126.08Z" style="fill:#94FF27"></path><path d="M171.43,132.45l-.6-.13c.06-.28.65-2.76,1.93-3.33s9.4-1.88,9.75-1.94l.1.61c-2.36.39-8.68,1.48-9.6,1.89S171.58,131.77,171.43,132.45Z" style="fill:#94FF27"></path><path d="M175.28,130.15s-4-4.28-6-2.78,1.52,8,4.19,8.61a2.61,2.61,0,0,0,3.26-1.89Z" style="fill:#eb9481"></path><path d="M170.32,129.22s0,.06,0,.07c1.88.46,3.05,2,4,3.59a1.44,1.44,0,0,0-2.19-.08s0,.1.07.09a1.57,1.57,0,0,1,1.82.3,7.26,7.26,0,0,1,1,1.29c.11.14.38,0,.3-.16l0,0C175,132,172.79,129.09,170.32,129.22Z" style="fill:#263238"></path></g><g id="freepik--character-2--inject-318"><path d="M336.8,391.42s0,42.18,0,42.21c0,8.07-.07,15.14-.47,18.79a.13.13,0,0,1,0,.06,5.5,5.5,0,0,1-.58,2.5l-.05,0c-2.39,1.64-66.84,3.84-69.11,3.16s-.52-7.21,1.91-9.29,26.75-14,26.75-14l.4-42.16Z" style="fill:#c95f50"></path><path d="M336.8,425s0,8.63,0,8.66c0,8.07-.07,15.14-.47,18.79a.13.13,0,0,1,0,.06,10.38,10.38,0,0,1-.58,2.5l-.05,0c-2.39,1.64-66.84,3.84-69.11,3.16s-.52-7.21,1.91-9.29,26.75-14,26.75-14l-.12-8.79Z" style="fill:#fff"></path><path d="M266.58,458.2c2.27.68,66.72-1.53,69.12-3.17.92-.61,1.15-10,1.09-21.4v-.35l-41.6,1,0,.7s-24.29,11.88-26.74,14S264.3,457.52,266.58,458.2Z" style="fill:#94FF27"></path><path d="M267.22,455.67c10.85-.64,54.69-2.19,65.47-2,.09,0,.09.06,0,.06-10.74.87-54.59,2.07-65.46,2.11C267,455.85,267,455.69,267.22,455.67Z" style="fill:#263238"></path><path d="M291.74,435.19c4.25-.95,9.5-.47,12.87,2.46.13.12,0,.3-.17.26a60.91,60.91,0,0,0-12.66-2.19A.27.27,0,0,1,291.74,435.19Z" style="fill:#263238"></path><path d="M288.72,437.15c4.25-.94,9.5-.47,12.87,2.47.13.11,0,.3-.17.26a59.62,59.62,0,0,0-12.66-2.19A.27.27,0,0,1,288.72,437.15Z" style="fill:#263238"></path><path d="M285.7,439.12c4.25-.95,9.5-.47,12.87,2.46.13.12,0,.3-.17.26a60.35,60.35,0,0,0-12.66-2.18A.27.27,0,0,1,285.7,439.12Z" style="fill:#263238"></path><polygon points="338.88 361.1 338.87 361.57 337.94 435.41 292.83 434.51 302.09 209.39 340.2 209.39 338.88 361.1" style="fill:#37474f"></polygon><path d="M294.71,427c7.05-.06,5-.14,12.07-.12,3.45,0,26.1.08,29.31.66a.07.07,0,0,1,0,.14c-3.23.49-25.87,0-29.32-.05-7-.16-5-.19-12.06-.42C294.58,427.18,294.58,427,294.71,427Z" style="fill:#263238"></path><path d="M330.29,402q.13-10.12.33-20.24.38-20.25.74-40.48.75-40.28,1.3-80.54c.23-15.15.22-30.3.61-45.44,0,0,.06,0,.07,0,.25,13.49.09,27,.07,40.49s-.08,27-.21,40.48c-.26,26.85-.63,53.7-1.27,80.55-.18,7.57-.36,15.14-.62,22.71s-.43,15.15-1,22.7a.09.09,0,1,1-.18,0C330,415.44,330.2,408.69,330.29,402Z" style="fill:#263238"></path><polygon points="340.2 209.84 339.2 324.8 308.65 209.39 340.19 209.39 340.2 209.84" style="fill:#263238"></polygon><path d="M405.83,370.32l21.77,35.4c3.54,7.25,6.51,13.67,7.73,17.14a.08.08,0,0,1,0,.05,5.55,5.55,0,0,1,.56,2.5.64.64,0,0,1,0,.07C434.44,428,377.32,457.93,375,458.3s-3.59-6.27-2.3-9.2,18-24.18,18-24.18l-21.39-35.53Z" style="fill:#c95f50"></path><path d="M435.91,425.42a.07.07,0,0,1,0,.06c-1.45,2.51-58.56,32.45-60.91,32.83s-3.59-6.28-2.31-9.21,18.05-24.18,18.05-24.18l-3.82-6.34c9.34-5,26.31-13.72,36.84-19.13,2.3,3.72,3.86,6.26,3.86,6.28,3.54,7.24,6.51,13.66,7.73,17.12a.14.14,0,0,1,0,.06A5.56,5.56,0,0,1,435.91,425.42Z" style="fill:#fff"></path><path d="M375,458.31c2.35-.38,59.46-30.31,60.91-32.83.57-1-3.31-9.53-8.29-19.76l-.16-.32-37.06,18.91.34.61s-16.74,21.24-18,24.18S372.64,458.69,375,458.31Z" style="fill:#94FF27"></path><path d="M374.47,455.75c9.5-5.28,48.33-25.69,58.13-30.19.08,0,.11,0,0,.06-9.31,5.44-48.3,25.54-58.08,30.29C374.34,456,374.27,455.86,374.47,455.75Z" style="fill:#263238"></path><path d="M387.68,426.66c3.42-2.7,8.36-4.54,12.67-3.36.17,0,.1.28-.05.31A59.81,59.81,0,0,0,388,427.13.27.27,0,0,1,387.68,426.66Z" style="fill:#263238"></path><path d="M385.81,429.74c3.42-2.69,8.36-4.54,12.67-3.36.16.05.1.28-.05.31a59.81,59.81,0,0,0-12.35,3.52A.27.27,0,0,1,385.81,429.74Z" style="fill:#263238"></path><path d="M383.94,432.82c3.42-2.69,8.36-4.54,12.67-3.36.16.05.1.28-.05.31a59.81,59.81,0,0,0-12.35,3.52A.27.27,0,0,1,383.94,432.82Z" style="fill:#263238"></path><path d="M306,209.35a.16.16,0,0,0,0,0c.17.79,2.83,13.15,5.6,23.76,2,7.76,4.07,14.58,5.25,15.28,1.35.8,7.89,3.7,10.08,4.61,0,0,14.72,73.45,22.49,96.23,7.16,21,36.83,77.2,36.83,77.2l43-21.74s-33.61-57-37.14-67.25c-5.48-15.86-26-93.3-26-93.3s.15-24.24-8-34.83Z" style="fill:#37474f"></path><path d="M386.88,418.08c6.15-3.44,4.34-2.54,10.52-5.9,3-1.65,22.94-12.46,26-13.5a.08.08,0,0,1,.07.13c-2.59,2-22.68,12.44-25.74,14-6.26,3.24-4.5,2.24-10.78,5.42A.1.1,0,0,1,386.88,418.08Z" style="fill:#263238"></path><path d="M355.1,237.44c-1.18-.31-2.44-.4-3.64-.59-1-.16-1.94-.33-2.9-.54a12.7,12.7,0,0,1-5.12-2.15c-1.66-1.3-2.51-3.26-3.31-5.15-.48-1.12-1-2.24-1.47-3.35-.25-.54-.49-1.08-.74-1.61a20.12,20.12,0,0,1-.91-1.94c0-.1-.18-.05-.15,0a13.24,13.24,0,0,1,.41,1.4c.17.54.32,1.08.49,1.62.3,1,.59,1.93.91,2.89a23,23,0,0,0,2.05,5.07c1.77,2.82,4.95,4,8.13,4.37.91.11,1.82.18,2.74.23a20.11,20.11,0,0,0,3.47,0C355.23,237.73,355.28,237.48,355.1,237.44Z" style="fill:#263238"></path><path d="M313.37,246.7A86.08,86.08,0,0,1,326.86,253c.17.09.06.36-.12.28-4.55-1.95-9.18-3.82-13.61-6A.3.3,0,0,1,313.37,246.7Z" style="fill:#263238"></path><path d="M312,215.58c0-.16.29-.19.29,0a152,152,0,0,0,.76,15.18c.21,2.34,2.1,15.27,6.16,14.33.68-.16,1-.83,1.13-1.85a16.42,16.42,0,0,0-.54-4c-.45-2.71-.81-5.42-1-8.16a73.82,73.82,0,0,1,.16-15.3.13.13,0,0,1,.26,0,140.73,140.73,0,0,0,1.24,21.12c.51,3.36,2.2,8.43-1.32,8.94s-5.9-8-6.34-10.27A77.6,77.6,0,0,1,312,215.58Z" style="fill:#263238"></path><path d="M319.1,245.42a22.23,22.23,0,0,1,.91,2.68,5.93,5.93,0,0,1,.38,2.2.16.16,0,0,1-.28.06,7.46,7.46,0,0,1-.94-2.14c-.31-.83-.64-1.66-.92-2.49A.45.45,0,0,1,319.1,245.42Z" style="fill:#263238"></path><path d="M417.67,397.59c-6.13-11.54-12.44-23-18.78-34.38-3.13-5.63-6.39-11.19-9.37-16.9a101.63,101.63,0,0,1-6.81-17.61q-5.68-18.48-10.77-37.13t-9.54-37.46c-.75-3.14-1.57-6.27-2.17-9.44a29,29,0,0,1,0-9.66,30.78,30.78,0,0,0,.07-9,58.86,58.86,0,0,0-2.1-8.79c-.48-1.52-1-3-1.51-4.52a.14.14,0,0,0-.27.08c1.86,6.07,3.76,12.21,3.36,18.64-.19,3.09-1,6.13-1,9.24a44.18,44.18,0,0,0,1.56,9.12q4.39,18.93,9.43,37.68t10.65,37.35c1.83,6,3.54,12.15,6.13,17.9s5.88,11.2,9,16.71q9.59,17.06,19.43,34c.83,1.43,1.68,2.85,2.52,4.27C417.58,397.76,417.71,397.68,417.67,397.59Z" style="fill:#263238"></path><path d="M339,150.91c2.83,8.19,1.35,48.55-2.84,53.37-7.24,8.34-43.25,14.28-52.61,13.62-6.76-.48-7.31-28.42-1.35-29.33,10-1.51,36.83-3.8,37.38-5.41,2.84-8.47,4.84-16.29,8.69-29.64C331,144.21,335.88,141.87,339,150.91Z" style="fill:#c95f50"></path><path d="M288.06,217.22c3-2.07,1.49-26.78-1.88-28.45-.64-.31-4.42-1.87-5.86-2.64a49.35,49.35,0,0,1-12.86-9.93c-4.13-4.67-9.71-12.08-12.3-10-3.8,3.08,2.14,13.3,5.9,18.95-3.68.28-6.83.86-8.54,1.87-5.67,3.35,0,28.71,6.6,29.65C265.51,217.62,285,219.29,288.06,217.22Z" style="fill:#c95f50"></path><path d="M266.93,187.42c2,2.77-2.42,3.55-2.42,3.55s6.63.41,7.6,4.07-4.45,4.28-4.84,4.34c.35,0,6.44.57,7,4.35s-4.92,3.75-5.27,3.74c.32.13,4.57,1.89,4.37,4.86-.36,5.11-11.35.91-15.06,2.76,0,0,.48,1.17.51,1.38,0,0-8.69-.64-10.82-3.45-1.78-2.35,1.13-4.33,1.13-4.33s-3.54-.84-4.09-3.8c-.29-1.52,1.89-3.33,1.89-3.33a4.47,4.47,0,0,1-3.13-3.46c-.27-2.12,2-3.6,2-3.6s-2.34-2-1.91-4.27C244.73,185.67,262.62,181.48,266.93,187.42Z" style="fill:#c95f50"></path><path d="M246.11,194.21a0,0,0,0,1,0-.09,31.88,31.88,0,0,1,18.68-3.22c.2,0,.24.38,0,.38A65.5,65.5,0,0,0,246.11,194.21Z" style="fill:#263238"></path><path d="M246.87,201.55c-.07,0-.11-.1,0-.13,5.73-2.87,13.61-4.22,20.6-2.25.24.07.39.37.1.31C262.79,198.53,252.51,199.7,246.87,201.55Z" style="fill:#263238"></path><path d="M269.47,207.78c-6.78-1.63-13.39-.93-20.08.77-.09,0-.11-.1,0-.14,3-1.72,7.43-2.36,10.88-2.57a18.35,18.35,0,0,1,9.3,1.7C269.64,207.59,269.61,207.81,269.47,207.78Z" style="fill:#263238"></path><path d="M264.6,190.88c.24,0-.09.36.16.4,1,.2,7,1.9,7.09,4.14,0,1.78-2.33,3.08-3.44,3.22l-2.78.35,2.74.64a11.52,11.52,0,0,1,3.45,1.39,4.13,4.13,0,0,1,2.06,2.65,2.35,2.35,0,0,1-1.29,2.66,7.11,7.11,0,0,1-3.51.59l-3.32-.18,3.06,1.25a10.71,10.71,0,0,1,2.4,1.35,4.42,4.42,0,0,1,1.61,2,2.11,2.11,0,0,1-.48,2.17,4.76,4.76,0,0,1-2.44.95,38.15,38.15,0,0,1-5.77.12c-1,0-1.95-.05-2.93,0a6.84,6.84,0,0,0-2.87.52,7.5,7.5,0,0,1,2.87-.25c1,0,1.93.14,2.9.24a31.29,31.29,0,0,0,5.9.18,5.37,5.37,0,0,0,3-1,3,3,0,0,0,.83-3.18,5.43,5.43,0,0,0-1.92-2.54,11.72,11.72,0,0,0-2.65-1.55L269,208a8.14,8.14,0,0,0,4.16-.65,3.42,3.42,0,0,0,1.62-1.63,3.85,3.85,0,0,0,.24-2.26,5.16,5.16,0,0,0-2.61-3.36,12.35,12.35,0,0,0-3.82-1.47l-.05,1c1.41-.23,4.22-1.39,4.5-4.17C272.84,191.79,265.88,191,264.6,190.88Z" style="fill:#263238"></path><path d="M264.51,191a7,7,0,0,0,1.83-1.05,1.58,1.58,0,0,0,.61-1.49,3.19,3.19,0,0,0-1-1.55c-.5-.48-1-.95-1.63-1.42a5.46,5.46,0,0,1,2.1.84,3.17,3.17,0,0,1,1.46,2,2.21,2.21,0,0,1-.21,1.34,2.3,2.3,0,0,1-.91.92A3.72,3.72,0,0,1,264.51,191Z" style="fill:#263238"></path><path d="M286.28,187l3.41,34.4s38.95-5.78,47.63-16.44c4.38-5.38,4.05-40.58,2.88-50.92s-8.11-12.9-12.19-1.48-7.86,28.54-8.71,29.54S286.28,187,286.28,187Z" style="fill:#263238"></path><path d="M296.61,216c-.68-4.39-2.84-22.47-3-26.4,0-.27.16-.35.21-.07a196.93,196.93,0,0,1,3,26.43C296.79,216.1,296.63,216.14,296.61,216Z" style="fill:#37474f"></path><path d="M365.87,224.53c-.16.16-65.47-1.48-66.05-2.19-.81-1,11.34-64.39,22.68-78.42,2.83-3.51,11.93-4,16.14-.56C359.46,160.24,366.44,223.92,365.87,224.53Z" style="fill:#94FF27"></path><path d="M365.38,218.48l-64.85-1.86c.25-1.48.56-3.21.92-5.13l63.24,1.81C365,215.24,365.2,217,365.38,218.48Z" style="fill:#263238"></path><path d="M364.33,210.89l-62.41-1.78c.11-.53.22-1.08.33-1.64l61.82,1.77C364.16,209.8,364.24,210.35,364.33,210.89Z" style="fill:#263238"></path><path d="M325.46,152.93c2.77.55,9.33-3.79,12.25-7.84.2-.28.13-3.47.23-7.36.08-2.35.21-5,.51-7.36L323,132.14a38.1,38.1,0,0,1,.3,9.34,4.75,4.75,0,0,1-.22,1s0,.1,0,.16C322.54,144.43,321.13,152.08,325.46,152.93Z" style="fill:#c95f50"></path><path d="M323.12,142.45c0,.05,0,.09,0,.16a10.28,10.28,0,0,0,1.53.27c8.53.86,11.89-9.24,12.72-12.38L323,132.14a38.75,38.75,0,0,1,.32,9.35A7.09,7.09,0,0,1,323.12,142.45Z" style="fill:#263238"></path><path d="M341.23,110.19c1.61,5.35-1.25,20.78-5.06,24.21-5.52,5-14.55,5.43-18.77-1.2-4.09-6.44,0-26.48,4.25-29.6C327.91,99,338.84,102.28,341.23,110.19Z" style="fill:#c95f50"></path><path d="M327,118.76s.07.06.06.11c-.23,1-.33,2.25.55,2.78,0,0,0,.06,0,0C326.49,121.32,326.63,119.7,327,118.76Z" style="fill:#263238"></path><path d="M328.15,117.85c1.7.2,1.18,3.57-.39,3.39S326.73,117.69,328.15,117.85Z" style="fill:#263238"></path><path d="M320.87,117.6s-.09,0-.09.08c-.13,1-.45,2.23-1.45,2.43,0,0,0,.06,0,.06C320.51,120.19,320.92,118.62,320.87,117.6Z" style="fill:#263238"></path><path d="M320.1,116.37c-1.66-.39-2.3,3-.77,3.32S321.5,116.69,320.1,116.37Z" style="fill:#263238"></path><path d="M329.72,116.52a13.15,13.15,0,0,1-1.23-.66,2.26,2.26,0,0,1-1.14-.92.73.73,0,0,1,.25-.84,1.78,1.78,0,0,1,1.81.09,2.62,2.62,0,0,1,1.33,1.35A.78.78,0,0,1,329.72,116.52Z" style="fill:#263238"></path><path d="M319.13,114.87a13.27,13.27,0,0,0,1.4-.14,2.22,2.22,0,0,0,1.39-.42.71.71,0,0,0,.09-.87,1.81,1.81,0,0,0-1.71-.61,2.63,2.63,0,0,0-1.74.75A.77.77,0,0,0,319.13,114.87Z" style="fill:#263238"></path><path d="M326.5,128.61c-.29.2-.59.5-1,.48a3,3,0,0,1-1.09-.44,0,0,0,0,0-.05,0,1.43,1.43,0,0,0,1.24.77,1.11,1.11,0,0,0,1-.8C326.62,128.61,326.54,128.58,326.5,128.61Z" style="fill:#263238"></path><path d="M325.88,125.31a3.59,3.59,0,0,1-2.62,1.22,4.37,4.37,0,0,1-1.29-.14,1.05,1.05,0,0,1-.24-.06l-.22-.07a.26.26,0,0,1-.17-.27h0a.36.36,0,0,1,0-.1h0l0-.09c.1-.81.37-2,.37-2-.32.1-1.92.55-1.83.13a53.88,53.88,0,0,1,3-10.56.09.09,0,0,1,.18.06c-.58,3.34-1.74,6.56-2.38,9.9a6.78,6.78,0,0,1,1.76-.25c.11,0-.56,2.34-.57,2.7a0,0,0,0,0,0,0,5,5,0,0,0,3.86-.58C325.88,125.15,326,125.24,325.88,125.31Z" style="fill:#263238"></path><path d="M322.51,126.06a4.33,4.33,0,0,0,1.49,1.57,1.92,1.92,0,0,0,1.14.24c.87-.09,1-.85,1-1.53a5.14,5.14,0,0,0-.22-1.06A5.53,5.53,0,0,1,322.51,126.06Z" style="fill:#263238"></path><path d="M324,127.63a1.92,1.92,0,0,0,1.14.24c.87-.09,1-.85,1-1.53A2,2,0,0,0,324,127.63Z" style="fill:#ff9bbc"></path><path d="M336.29,118c-1-3.08.93-8.14-.56-9.55-3.22-3-10.12,2.45-14.76,2.36s-5.92-3-5-6.64,4.07-6,9.13-6.61a19,19,0,0,1,12.48,3.3s-1.09-1.84-.65-2.4,2.59,1.25,3.25,2a6.75,6.75,0,0,1,1,2.19,7.31,7.31,0,0,1,2.05-.16,4.3,4.3,0,0,1,2.64,1.27c.07.27-1.57.43-2.72.46,0,0,2.06,2.89,1.95,5.32s-4.19,13.87-5.1,14C338.86,123.66,336.68,119.25,336.29,118Z" style="fill:#263238"></path><path d="M342.75,103.93s-.1,0-.06.07a7.67,7.67,0,0,1,2.34,3.5,9.53,9.53,0,0,1-.09,5c-.79,3.17-2.43,6-3.86,8.94,0,.08.1.15.15.07a33.83,33.83,0,0,0,4.17-9.62C346,109,345.42,105.63,342.75,103.93Z" style="fill:#263238"></path><path d="M335.94,107.27a11.19,11.19,0,0,0-4.08.16,15.58,15.58,0,0,0-3.54,1.64,15.58,15.58,0,0,1-8.36,2.06,0,0,0,0,0,0,.06,13.61,13.61,0,0,0,7.77-1.45,34.77,34.77,0,0,1,3.67-1.82,14.09,14.09,0,0,1,4.53-.4A.13.13,0,0,0,335.94,107.27Z" style="fill:#263238"></path><path d="M334.83,99.52a21.1,21.1,0,0,0-5.71-2.06,17,17,0,0,0-5.81-.36c-3.34.46-6.46,2.5-7.33,5.9a7.22,7.22,0,0,0,.55,5.2.09.09,0,1,0,.16-.08,7.52,7.52,0,0,1,1.94-8.78c2.79-2.3,6.63-2.38,10-1.75a31,31,0,0,1,6.17,2S334.84,99.52,334.83,99.52Z" style="fill:#263238"></path><path d="M337.89,122.76s3.61-4.91,5.85-3.62-.56,8.48-3.24,9.41a2.71,2.71,0,0,1-3.59-1.54Z" style="fill:#c95f50"></path><path d="M342.88,121.18a0,0,0,0,1,0,.07c-1.88.72-2.91,2.42-3.63,4.2a1.49,1.49,0,0,1,2.24-.36c.05,0,0,.11-.05.1a1.67,1.67,0,0,0-1.85.54,8.72,8.72,0,0,0-.91,1.46c-.09.17-.39.07-.32-.12l0,0C338.4,124.65,340.33,121.36,342.88,121.18Z" style="fill:#263238"></path><path d="M331.72,166.11c-7.22-.42-45.69-4.13-54-12.09-12.37-11.83-18.33-31.16-21.39-39.46C255,110.94,279,99.62,280.93,103.23c4.24,7.75,13.21,28.68,15.37,30.88s26.17,11.57,38.49,17.07C351.32,158.56,349.25,167.12,331.72,166.11Z" style="fill:#c95f50"></path><path d="M280.7,105.34s.76-10.59-.56-16.27a37.5,37.5,0,0,0-8.54-15.78c-4.38-4.87-18.35-13.6-21.57-10-2.91,3.24,11.82,11.44,11.82,11.44s-13.64-10.84-16.43-6.28,14.86,13.09,14.86,13.09S246,70.71,243.88,75.86c-1.61,3.89,13.93,12.53,13.93,12.53s-12.32-9.22-14.15-5.29c-2,4.35,11.83,13.22,11.83,13.22-3,10.77.17,18.67,3.07,21.57C259.42,118.75,280.7,105.34,280.7,105.34Z" style="fill:#c95f50"></path><path d="M266.81,78.17c-1.56-1.33-3.13-2.69-4.79-3.88S258.63,72,256.86,71a35.12,35.12,0,0,0-7.27-3.35c4.4,1.81,10.45,6,12.12,7.16s3.39,2.29,5.05,3.47A0,0,0,0,0,266.81,78.17Z" style="fill:#263238"></path><path d="M262.62,84.27c-2.06-1.61-4-3.29-6.17-4.81s-4.27-2.77-6.49-4.13c-.17-.11-.17,0,0,.13,2.17,1.45,4.06,3,6.2,4.44s4.36,2.88,6.44,4.43C262.62,84.35,262.66,84.3,262.62,84.27Z" style="fill:#263238"></path><path d="M260,90.16a58.15,58.15,0,0,0-10-6.64c-.18-.1-.16.07,0,.18,3.37,2.14,6,3.8,9.91,6.56C260,90.31,260,90.21,260,90.16Z" style="fill:#263238"></path><path d="M254,120.62l29-15.31s11.19,25.29,13.53,27.81S334.08,149,342,154.74s5.72,11.52-4.66,12.08-51.38-4.77-58.81-10.75S254,120.62,254,120.62Z" style="fill:#263238"></path><path d="M283.74,113.47c-3.86,2.21-20,10.68-23.57,12.28-.25.11-.38,0-.14-.17a194.3,194.3,0,0,1,23.61-12.26C283.74,113.28,283.83,113.41,283.74,113.47Z" style="fill:#37474f"></path></g><g id="freepik--Lines--inject-318"><path d="M257.29,54.92a113.25,113.25,0,0,1,2.51-11.27c1-3.71,2.09-7.4,3.47-11-.62,3.82-1.53,7.55-2.51,11.27S258.66,51.31,257.29,54.92Z" style="fill:#263238"></path><path d="M236,57.71c-2.26-3.13-4.26-6.42-6.19-9.74s-3.75-6.71-5.33-10.24c2.26,3.13,4.26,6.42,6.19,9.74S234.39,54.19,236,57.71Z" style="fill:#263238"></path><path d="M222.87,74.76c-3.81-.62-7.55-1.53-11.27-2.51s-7.4-2.09-11-3.47a112.62,112.62,0,0,1,11.27,2.51C215.57,72.3,219.26,73.38,222.87,74.76Z" style="fill:#263238"></path><path d="M219.71,99.51A57.76,57.76,0,0,1,213,104a56.53,56.53,0,0,1-7.27,3.61,57.87,57.87,0,0,1,6.77-4.48A59.11,59.11,0,0,1,219.71,99.51Z" style="fill:#263238"></path><path d="M284.35,91.27A56.46,56.46,0,0,1,292,92.81a53.73,53.73,0,0,1,7.4,2.51,53,53,0,0,1-7.66-1.54A53.28,53.28,0,0,1,284.35,91.27Z" style="fill:#263238"></path><path d="M274.34,68c3.13-2.26,6.41-4.26,9.74-6.2a115.35,115.35,0,0,1,10.24-5.32c-3.13,2.26-6.42,4.26-9.74,6.19S277.86,66.44,274.34,68Z" style="fill:#263238"></path><path d="M212.7,66.94a21.22,21.22,0,0,1,4.67,1.5,21.52,21.52,0,0,1,4.27,2.41A21.57,21.57,0,0,1,217,69.36,21,21,0,0,1,212.7,66.94Z" style="fill:#263238"></path><path d="M271.27,34.19c-.91,2.25-1.91,4.46-2.93,6.66s-2.08,4.37-3.16,6.53-2.2,4.32-3.37,6.44L260.05,57c-.62,1-1.2,2.1-1.85,3.13.44-1.13.94-2.24,1.41-3.36l1.51-3.3c1-2.2,2.09-4.37,3.17-6.54s2.2-4.31,3.37-6.43S270,36.26,271.27,34.19Z" style="fill:#263238"></path><path d="M281.33,72.92c3.88-.74,7.8-1.17,11.72-1.53s7.85-.59,11.8-.54c-3.88.74-7.8,1.18-11.72,1.53S285.28,73,281.33,72.92Z" style="fill:#263238"></path><path d="M216.34,96.62a89,89,0,0,1-9.41,3.43,86.87,86.87,0,0,1-9.71,2.48,100.75,100.75,0,0,1,19.12-5.91Z" style="fill:#263238"></path></g></svg>