<svg xmlns="http://www.w3.org/2000/svg" viewBox="0 0 500 500"><g id="freepik--Floor--inject-23"><path id="freepik--floor--inject-23" d="M110.63,280.42c-77,44.44-77,116.49,0,160.93s201.77,44.44,278.74,0,77-116.49,0-160.93S187.6,236,110.63,280.42Z" style="fill:#f5f5f5"></path></g><g id="freepik--Shadows--inject-23"><ellipse id="freepik--Shadow--inject-23" cx="250" cy="352.82" rx="66.74" ry="38.53" style="fill:#e0e0e0"></ellipse><ellipse id="freepik--shadow--inject-23" cx="323.11" cy="348.76" rx="53.91" ry="31.13" style="fill:#e0e0e0"></ellipse><ellipse id="freepik--shadow--inject-23" cx="176.89" cy="348.76" rx="53.91" ry="31.13" style="fill:#e0e0e0"></ellipse></g><g id="freepik--characters-2-and-3--inject-23"><g id="freepik--Characters--inject-23"><g id="freepik--Arm--inject-23"><path d="M267.84,115.23c8.75.34,14.48,4.76,19.77,19.56s10.71,31.05,10.71,31.05,24.41,13.54,27.07,14.32c4.61,1.35,5.32,0,12.95,1.35,5.5,1,6.46,2.58,9.72,3.66,1,.33.3,1.7-.93,2.29-1,.5-4,.47-5.62.24-3.53-.51.77,1.55,3.33,2.52,2.11.8,8.89,1.59,8.54,4s-5.52,7.3-14.65,6-13.19-4.15-18.56-7.42c-4-2.42-26.32-8.69-31-10.41-7-2.58-7-4.33-10.1-11.67-2.82-6.75-12.29-29.88-12.29-29.88Z" style="fill:#b16668"></path><path d="M266.27,115c3.58,0,7,.25,10.38,2.46s5.46,4.39,8,9.48,6.25,15.89,7.15,18.42,6.92,19.89,6.92,19.89l14,8.11s-3.6,1-5.43,6.33-.94,8.25-.94,8.25-15.25-4.75-18.93-6.17c-4.05-1.56-5.08-3.25-6.43-6s-14.71-35-14.71-35Z" style="fill:#e0e0e0"></path></g><g id="freepik--character-boy--inject-23"><path d="M269.64,209.36c.95,1.56,3.57,0,8.15-1.81s2.75-22.19,2.75-22.19-7.32,0-8.63,6.87S269.64,209.36,269.64,209.36Z" style="fill:#263238"></path><path d="M307.67,173.6c4.31-.07,13.85,4.91,15.36,8.26,1.59,3.52,7.31,51.21,3.64,55.67-4.61,5.6-27.31,16.57-37.25,16.25-8.21-.25-16-7.78-17.27-10-2-3.6.51-52.68,3.11-56.82C279.48,180.29,302.17,173.7,307.67,173.6Z" style="fill:#81FF00"></path><path d="M307.67,173.6c4.31-.07,13.85,4.91,15.36,8.26,1.59,3.52,7.31,51.21,3.64,55.67-4.61,5.6-27.31,16.57-37.25,16.25-8.21-.25-16-7.78-17.27-10-2-3.6.51-52.68,3.11-56.82C279.48,180.29,302.17,173.7,307.67,173.6Z" style="opacity:0.5"></path><path d="M272.18,211.89c.12-2.06.26-4.09.41-6,.06-.79.12-1.56.19-2.32.13-1.52.26-3,.4-4.38.07-.7.14-1.38.21-2,.11-1,.22-1.92.33-2.79s.23-1.69.34-2.44l.12-.73a14.32,14.32,0,0,1,1.08-4.16,6.75,6.75,0,0,1,.41-.57l.15-.19q.15-.19.33-.39l.21-.22.36-.36L277,185c.19-.18.38-.35.59-.52l.41-.34.28-.22.48-.36.24-.18.55-.39c3.88,1.61,7.54,3.14,7.65,3.21s4.17,2.52,4,8.55v26.7c-.05,3.23,2.74,33.06-6.4,31.35l-.36-.06c-6.14-2.18-11.23-7.23-12.22-9a5.38,5.38,0,0,1-.4-1.64c0-.31-.08-.67-.11-1.06,0-.19,0-.4-.05-.61,0-.63-.08-1.34-.11-2.12,0-.26,0-.52,0-.8-.11-4.09,0-9.76.22-15.82.05-1.21.11-2.44.17-3.68l.12-2.48c0-.41.05-.83.07-1.24C272.08,213.53,272.12,212.71,272.18,211.89Z" style="fill:#81FF00"></path><path d="M272.18,211.89c.12-2.06.26-4.09.41-6,.06-.79.12-1.56.19-2.32.13-1.52.26-3,.4-4.38.07-.7.14-1.38.21-2,.11-1,.22-1.92.33-2.79s.23-1.69.34-2.44l.12-.73a14.32,14.32,0,0,1,1.08-4.16,6.75,6.75,0,0,1,.41-.57l.15-.19q.15-.19.33-.39l.21-.22.36-.36L277,185c.19-.18.38-.35.59-.52l.41-.34.28-.22.48-.36.24-.18.55-.39c3.88,1.61,7.54,3.14,7.65,3.21s4.17,2.52,4,8.55v26.7c-.05,3.23,2.74,33.06-6.4,31.35l-.36-.06c-6.14-2.18-11.23-7.23-12.22-9a5.38,5.38,0,0,1-.4-1.64c0-.31-.08-.67-.11-1.06,0-.19,0-.4-.05-.61,0-.63-.08-1.34-.11-2.12,0-.26,0-.52,0-.8-.11-4.09,0-9.76.22-15.82.05-1.21.11-2.44.17-3.68l.12-2.48c0-.41.05-.83.07-1.24C272.08,213.53,272.12,212.71,272.18,211.89Z" style="opacity:0.4"></path><path d="M274.44,189.7a9.89,9.89,0,0,1,.82-2.71c4.22-6.7,26.91-13.29,32.41-13.39,4.31-.07,13.85,4.91,15.36,8.26a25.82,25.82,0,0,1,1,4.39c-8.63,4.57-30.89,14.74-33.18,13.9-2.81-1-16.14-10-16.38-10.44Z" style="opacity:0.5"></path><path d="M270.38,221.56c.26-.13,4-2.94,4.48-3.16.78-.39,11.95,7.24,13,8.53.72.9-.47,14.74-.91,15.73-.16.35-4.33,2.81-4.49,3.16-.44,1-12.24-6.77-13-8.64S269.24,222.13,270.38,221.56Z" style="fill:#81FF00"></path><path d="M270.38,221.56c.26-.13,4-2.94,4.48-3.16.78-.39,11.95,7.24,13,8.53.72.9-.47,14.74-.91,15.73-.16.35-4.33,2.81-4.49,3.16-.44,1-12.24-6.77-13-8.64S269.24,222.13,270.38,221.56Z" style="opacity:0.18"></path><path d="M283.35,230.1c.72.9-.47,14.74-.91,15.72s-12.24-6.77-13-8.64-.23-15.05.91-15.62C271.15,221.17,282.32,228.81,283.35,230.1Z" style="fill:#81FF00"></path><path d="M274.86,218.4c-.43.21-4.22,3-4.48,3.16.77-.38,11.94,7.25,13,8.53l4.49-3.16C286.81,225.64,275.64,218,274.86,218.4Z" style="opacity:0.4"></path><path d="M283.35,230.1c.72.9-.47,14.74-.91,15.72s-12.24-6.77-13-8.64-.23-15.05.91-15.62C271.15,221.17,282.32,228.81,283.35,230.1Z" style="opacity:0.30000000000000004"></path><path d="M287.84,226.93c-.83-.55-3.33.77-4.41,1.69s-2.28,5.25-5.06,5.92-6.69-3-7.5-5.38-1.76-7.32-.4-9.08,3.71-2.7,5.67-1.63S287.61,224.76,287.84,226.93Z" style="fill:#81FF00"></path><path d="M287.84,226.93c-.83-.55-3.33.77-4.41,1.69s-2.28,5.25-5.06,5.92-6.69-3-7.5-5.38-1.76-7.32-.4-9.08,3.71-2.7,5.67-1.63S287.61,224.76,287.84,226.93Z" style="opacity:0.1"></path><path d="M275.31,228.78a2.1,2.1,0,0,1,1,1.92.84.84,0,0,1-1.28.73,2,2,0,0,1-1-1.93A.82.82,0,0,1,275.31,228.78Z" style="fill:#37474f"></path><path d="M291.14,200.2s-1.5-5.74-8.41-9.79-7.13-2.79-9.37,1.07c-2,3.48-2.89,16.49-3,17.73s-1.59,1-1.31-7,1.44-15.57,8.9-20.25c10-6.29,25.54-10.34,32.82-8.7s13.8,5.33,13.24,12.94C324,186.25,314.47,198.82,291.14,200.2Z" style="fill:#37474f"></path><g id="freepik--Legs--inject-23"><path d="M338.16,229.53c-5.26,5.8-16.61,16.48-16.61,16.48l-6,9.06s.67,22.29,1.45,31.05c-5.75,2.55-9.79,7.89-12.68,14-3.32,7.05-7.08,12.79-8.78,16.1l-.63,1.17a73.9,73.9,0,0,1-5.53,5.58c-1.37,1-3.59,3-3.4,4.74.35,3.18,1.45,3.65,3.26,6.33a11.81,11.81,0,0,1,2,5.56,15.17,15.17,0,0,0,3.37,7.3c1.45,1.43,5.08,4.34,7.72,5,5.84,1.53,6.88-2.49,7.19-4.75.2-1.46-1.72-3.15-3.22-4.23-2.32-1.68-3.49-5.3-3.69-7.68-.36-4.28-.66-8.32,1.25-11.43s3.4-4.18,9.07-9.46c6-5.6,10.63-10.29,17.3-16.26,2.89-2.57,9.52-8.77,10.07-14.64.91-9.59,2-15.39,2.09-24.92C342.49,237.69,338.16,229.53,338.16,229.53Z" style="fill:#b16668"></path><path d="M341.87,229.83s0,4,1.18,20.19-.9,32.79-2.64,36.7-5.8,8.71-10.74,13.17-13.54,12.76-13.54,12.76A30.76,30.76,0,0,1,305.55,297a25.07,25.07,0,0,1,10-11.32l-2.05-56.6Z" style="fill:#37474f"></path><path d="M308.32,350.85a3.32,3.32,0,0,1-2.45,2.34c-1.75.15-6-.61-9.81-4.18s-4.35-5.24-5-7.85-1.13-5.19-2.72-7-3.64-4.3-3.81-5.25,1.65-3.31,1.65-3.31Z" style="fill:#263238"></path><path d="M295.34,316.33a.93.93,0,0,0-1.13.06c-.61.58-2.14,2.41-3.21,3.3a33.82,33.82,0,0,0-5.35,6.83c-.67,1.41,2.41,4.8,3.73,6.82a21.16,21.16,0,0,1,2.78,6.94,15.84,15.84,0,0,0,5.68,8.41c3.24,2.31,7.62,3.89,9.54,3,2.36-1.11,3.8-2.78.62-8.45-.6-1.07-2.21-4.72-2.8-6.19a23.48,23.48,0,0,1-.93-4.82,17.71,17.71,0,0,1,.31-4.8,18.84,18.84,0,0,1,.7-1.9,1.33,1.33,0,0,0,.14-1.09,1.19,1.19,0,0,0-.58-.5,32,32,0,0,0-4.49-2.34,2.39,2.39,0,0,0-1.58-.09,2,2,0,0,0-.86.74,10.2,10.2,0,0,1-.69.9.66.66,0,0,1-.35.22c-.28.05-.44-.27-.49-.5a14.63,14.63,0,0,1-.17-2.48c0-.44-.91-1.35-1-1.78a10.38,10.38,0,0,1-.44-1.12C294.66,317,295.07,316.72,295.34,316.33Z" style="fill:#37474f"></path><path d="M292.16,340.28a28.68,28.68,0,0,0-1-3.31h0s3.63,5.69,7,5.79c2.18.05,2.37-1.66,2.61-2.08s5.06.54,6.6,1.39h0c.24.51.44.93.58,1.17,3.18,5.67,1.74,7.34-.62,8.45-1.92.89-5.39.16-9.55-2.86A16.3,16.3,0,0,1,292.16,340.28Z" style="fill:#455a64"></path><path d="M301.25,339.27c2.11,3.33.44,3-.48,2.49s-3.36-5.93-4.67-10.55c-1.36-4.82-2.21-9.49-2.72-11.27-.19-.66-.36-1.43-.5-2.13.55-.6,1.05-1.15,1.33-1.42a1.31,1.31,0,0,1,1.29-.16l-.63,1.17a2.85,2.85,0,0,0,.42,1.16,4.75,4.75,0,0,1,.92,1.83,14.63,14.63,0,0,0,.17,2.48C296.59,328,299.13,335.93,301.25,339.27Z" style="fill:#263238"></path><path d="M300.88,341.17a.35.35,0,0,1-.14-.2.36.36,0,0,1,.26-.44,8.67,8.67,0,0,1,7,1.78.38.38,0,0,1,0,.52.35.35,0,0,1-.51,0,8.09,8.09,0,0,0-6.33-1.62A.35.35,0,0,1,300.88,341.17Z" style="fill:#f0f0f0"></path><path d="M299.34,337.83a.38.38,0,0,1-.15-.2.37.37,0,0,1,.25-.45,8.71,8.71,0,0,1,7,1.63.36.36,0,0,1,0,.51.37.37,0,0,1-.52,0,8.09,8.09,0,0,0-6.36-1.48A.35.35,0,0,1,299.34,337.83Z" style="fill:#f0f0f0"></path><path d="M298.14,334.43a.48.48,0,0,1-.14-.2.38.38,0,0,1,.26-.45,8.74,8.74,0,0,1,7,1.79.37.37,0,0,1,0,.52.36.36,0,0,1-.51,0,8.06,8.06,0,0,0-6.32-1.62A.38.38,0,0,1,298.14,334.43Z" style="fill:#f0f0f0"></path><path d="M297.46,331.58a.36.36,0,0,1-.15-.19.38.38,0,0,1,.24-.46,8.81,8.81,0,0,1,7.07,1.49.39.39,0,0,1,.05.52.36.36,0,0,1-.51,0,8.08,8.08,0,0,0-6.39-1.35A.37.37,0,0,1,297.46,331.58Z" style="fill:#f0f0f0"></path><path d="M296.71,328.3a.3.3,0,0,1-.14-.19.36.36,0,0,1,.23-.46c2.18-.7,5.51.09,7.59,1.84a.35.35,0,0,1,.05.51.36.36,0,0,1-.51,0c-1.87-1.56-5-2.32-6.91-1.7A.34.34,0,0,1,296.71,328.3Z" style="fill:#f0f0f0"></path><path d="M343.9,360.73c-3-2.18-4.24-3.27-7-5.42-4.43-3.46-6.1-7.11-6.28-10.43a99.08,99.08,0,0,1,.32-11.11c.21-3.5.72-14.45,1.14-24.34.48-11.51.68-15.18-.94-27-.92-6.62-2.45-19.12-3.91-31.35,0,0,4.3-2.09,9.18-9.19,2.62-3.81,2.26-8.55,1.74-12.4a29.55,29.55,0,0,1-20.44,7.09c-13.63-.45-20.37-5.93-20.37-5.93-1,1.51-2,5.46-2.51,10.66a49,49,0,0,0,.6,14.82c1.83,8.64,13.71,33.28,17.8,41.16-1.5,6.13-1.71,11.74,1.27,24.88a182.92,182.92,0,0,1,3.16,20.64c-.09,1.51-.85,2.32-2,5.79-.41,1.25-1.31,3.33-1.12,4.69s4.09,3.51,6.62,4.71c3.59,1.69,3.61,2.62,6.39,5.63a13.6,13.6,0,0,0,6.74,4c4,.86,7.45.78,10-.81S346.67,362.76,343.9,360.73Z" style="fill:#b16668"></path><path d="M295.43,230.07c-1,8.35-1.69,18-.56,24.67,1.21,7.16,5.09,17.39,8.37,26,2.15,5.64,7.49,17.2,7.49,17.2-.45,4.3.23,9.91,1.83,18.79,1.8,1.8,13.95,3.32,20-.37.78-11.51,1.26-16.3,1-19.8s-5-42.38-5-42.38S342,245.51,341.14,232Z" style="fill:#455a64"></path><path d="M346.08,365.38a3.3,3.3,0,0,1-1,3.23c-1.46,1-5.56,2.38-10.6,1.1s-6.34-2.48-8.19-4.44-3.5-4-5.76-4.78c-2.09-.74-5.26-2-5.87-2.75s-.16-3.69-.16-3.69Z" style="fill:#263238"></path><path d="M318,341.47a.93.93,0,0,0-1,.6c-.25.79-.71,3.14-1.21,4.44a34,34,0,0,0-1.37,8.57c.1,1.55,4.43,3,6.57,4.15a21.5,21.5,0,0,1,5.79,4.73,15.91,15.91,0,0,0,9,4.61c4,.45,8.56-.3,9.8-2,1.53-2.12,2-4.27-3.55-7.69-1-.65-4.22-3.07-5.44-4.07s-2.06-2.44-3.16-3.76a17.79,17.79,0,0,1-2.05-4.35,19.32,19.32,0,0,1-.31-2,1.33,1.33,0,0,0-.4-1,1.27,1.27,0,0,0-.75-.15,31.57,31.57,0,0,0-5.06.13,2.39,2.39,0,0,0-1.43.69,2.07,2.07,0,0,0-.39,1.06,11,11,0,0,1-.17,1.13.65.65,0,0,1-.2.35c-.22.18-.52,0-.67-.19a15.85,15.85,0,0,1-1.35-2.09c-.24-.38-1.45-.75-1.77-1.06a8.72,8.72,0,0,1-.92-.77C317.72,342.37,318,341.94,318,341.47Z" style="fill:#37474f"></path><path d="M326.82,364a29.53,29.53,0,0,0-2.46-2.42h0s5.94,3.22,8.95,1.65c1.94-1,1.27-2.59,1.28-3.07s4.68-2,6.45-2h0c.45.32.83.59,1.07.74,5.53,3.42,5.08,5.57,3.55,7.69-1.24,1.7-4.64,2.74-9.74,2.13A16.43,16.43,0,0,1,326.82,364Z" style="fill:#455a64"></path><path d="M334.28,358.67c3.46,1.9,1.83,2.39.79,2.41s-5.82-3.56-9.2-7-6.53-7.22-7.84-8.53c-.49-.49-1-1.08-1.46-1.63.19-.79.35-1.51.47-1.88a1.32,1.32,0,0,1,1-.77v1.33a2.94,2.94,0,0,0,.94.81,4.83,4.83,0,0,1,1.69,1.16,15.85,15.85,0,0,0,1.35,2.09C324.77,351.11,330.81,356.77,334.28,358.67Z" style="fill:#263238"></path><path d="M334.88,360.52a.39.39,0,0,1-.22-.11.37.37,0,0,1,0-.52,8.73,8.73,0,0,1,7-1.82.37.37,0,0,1-.17.71,8,8,0,0,0-6.32,1.64A.36.36,0,0,1,334.88,360.52Z" style="fill:#f0f0f0"></path><path d="M331.91,358.34a.33.33,0,0,1-.22-.11.36.36,0,0,1,0-.51,8.74,8.74,0,0,1,6.94-2,.37.37,0,0,1,.28.43.36.36,0,0,1-.43.29,8.1,8.1,0,0,0-6.28,1.78A.36.36,0,0,1,331.91,358.34Z" style="fill:#f0f0f0"></path><path d="M329.22,355.94a.33.33,0,0,1-.22-.11.36.36,0,0,1,0-.51,8.73,8.73,0,0,1,7-1.82.36.36,0,0,1,.27.43.35.35,0,0,1-.44.27,8.12,8.12,0,0,0-6.32,1.64A.33.33,0,0,1,329.22,355.94Z" style="fill:#f0f0f0"></path><path d="M327.24,353.78a.31.31,0,0,1-.22-.09.37.37,0,0,1,0-.52,8.77,8.77,0,0,1,6.9-2.12.37.37,0,0,1-.13.72,8.11,8.11,0,0,0-6.25,1.9A.32.32,0,0,1,327.24,353.78Z" style="fill:#f0f0f0"></path><path d="M325,351.27a.36.36,0,0,1-.22-.09.37.37,0,0,1,0-.52c1.57-1.67,4.87-2.59,7.53-2.07a.36.36,0,1,1-.13.71c-2.4-.46-5.48.38-6.87,1.86A.37.37,0,0,1,325,351.27Z" style="fill:#f0f0f0"></path></g><g id="freepik--Top--inject-23"><path d="M295.36,212.36c.05-5-1.1-18.43-1.16-20.59-.12-4.34,1.38-9.18,3.82-10l9.14-2.07s17-1.36,19.44-1.49c4.58-.24,10.58,2.27,10.58,2.27,2.85,2.55,3.27,7.45,3.69,19.65.13,4,1.94,27.49,1.94,39.14-9,8-37,8.16-48.62.18C294.19,239.49,295.25,222.8,295.36,212.36Z" style="fill:#81FF00"></path><path d="M311.63,172.49c-1.19-3.75-5.44-6.8-7.43-12.7-2.72-8-3.95-17.61,5-20.95.6-3,5.73-6.15,10-6.54a23.16,23.16,0,0,1,8.87,1,28.58,28.58,0,0,0,9.94,1.42c1.36-.06,2.82-.19,4,.52a3.8,3.8,0,0,1,1.66,3.44,6.34,6.34,0,0,1-1.57,3.61,3.27,3.27,0,0,1-.41,6.32,3.92,3.92,0,0,1-1.15,4.31,7.06,7.06,0,0,1-4.4,1.57s-1.08,3.1-1.24,3.38a13.08,13.08,0,0,1-2.23,3,12.43,12.43,0,0,1-3,2.24,18.21,18.21,0,0,1-4,1.2,12,12,0,0,0-2.37.72,8.14,8.14,0,0,0-1.35,1.22l-7.79,6.88C313.51,173.65,312.28,172.51,311.63,172.49Z" style="fill:#263238"></path><path d="M311.86,160.72a1.66,1.66,0,0,1-.21.16c-1.11.65-1-1.23-2-2.52a2.78,2.78,0,0,0-2.28-1,3.59,3.59,0,0,0-3.45,2,5.28,5.28,0,0,0,2.9,7,4.25,4.25,0,0,0,4.63-.75l-.2,14.26c5.24,7.94,20.75,6.44,15.77-.25l.09-2.94a18,18,0,0,0,5.58-.59,10.63,10.63,0,0,0,7.19-8c.6-2.69-.14-5.13,0-7.87.07-1.63.29-4.2.28-5.26,0-1.31-.38-6.5-1.75-8.32-2.32,3.5-12.38,4.07-19.57.81a11.44,11.44,0,0,1-1.58,5.56c-1.1,1.88-2.81,2.81-4.71,3.92a6.61,6.61,0,0,1-.18,3.06A2.24,2.24,0,0,1,311.86,160.72Z" style="fill:#b16668"></path><path d="M319.44,155.05l3.46-2.41a2.22,2.22,0,0,1-.55,3A2.05,2.05,0,0,1,319.44,155.05Z" style="fill:#263238"></path><path d="M321.93,159a1.73,1.73,0,0,0,3.46-.12,1.73,1.73,0,1,0-3.46.12Z" style="fill:#263238"></path><path d="M334.05,158.66a1.73,1.73,0,0,0,3.46-.12,1.74,1.74,0,0,0-1.79-1.67A1.72,1.72,0,0,0,334.05,158.66Z" style="fill:#263238"></path><path d="M334.32,152.5l4,1.37a2,2,0,0,1-2.62,1.37A2.23,2.23,0,0,1,334.32,152.5Z" style="fill:#263238"></path><polygon points="330 155.56 330.69 164.92 335.09 163.56 330 155.56" style="fill:#9a4a4d"></polygon><path d="M327.74,167.37c-.67-.69-3-1.55-2.83-.53.24.62,1.12.6,1.56,1,.41.25.67.72,1.13.86C328.54,169,328.14,167.78,327.74,167.37Z" style="fill:#9a4a4d"></path><path d="M327.08,176.6s-6-.73-10.22-3.52a10.34,10.34,0,0,1-3.61-5,13,13,0,0,0,2.11,5.15c4,4.73,11.66,5.4,11.66,5.4Z" style="fill:#9a4a4d"></path><path d="M337.23,179.73c7.12.69,10.09,2.61,14.11,9.05,2.94,4.7,10.72,17.93,10.72,17.93s1.35,7-7.34,5.41-12.09-4.84-12.09-4.84Z" style="fill:#b16668"></path><path d="M358,211.71c-2.5-1.1-7-3.23-8.24-4.52s-1.19-8.13-4.53-8.43L344.84,209l8.85,6.58Z" style="fill:#9a4a4d"></path><path d="M337.09,179.38c4.61.59,8.37,1.05,11.61,5.1s9.77,15,9.77,15-3.7,7.92-15.79,7.11Z" style="fill:#81FF00"></path><path d="M337.09,179.38c4.61.59,8.37,1.05,11.61,5.1s9.77,15,9.77,15-3.7,7.92-15.79,7.11Z" style="opacity:0.15"></path><path d="M330.28,178.51s3.34.88,7.19,10.34a40.06,40.06,0,0,1,2.47,11.87c.18,2.16,2.9,4.37,2.68,7.09.54-2.6,2.06-4.8,2.05-7.3,0-6.3-1.44-17-7.58-21.13A19.22,19.22,0,0,0,330.28,178.51Z" style="fill:#263238"></path><path d="M362.06,206.71c3.43,4.62,6.63,10.08,7.28,14.06.84,5.17-.34,10.82-7.21,9.21a28.35,28.35,0,0,1-6.92-2.4,41.2,41.2,0,0,1-8.87-5.83,47.74,47.74,0,0,1-8.61-9.67,11.47,11.47,0,0,1-2-6.17,13.42,13.42,0,0,1,.48-2.56,10.07,10.07,0,0,0,.06-2,20.57,20.57,0,0,1,.28-5.08,13.5,13.5,0,0,1,.75-2.25,4.22,4.22,0,0,1,.62-1l.71-.68a18.05,18.05,0,0,1,.44,1.88,33.06,33.06,0,0,0,.9,3.93,9.54,9.54,0,0,0,1.81,3.21,2.67,2.67,0,0,0,1.16.89c.88.29,1.52.13,1.54-.08a38.54,38.54,0,0,0,.07-5c1-.05,2.27,2,2.58,4.78a28,28,0,0,0,.65,4.14c.49,1.89,3,4.11,7,6C358.06,211.88,359.26,208,362.06,206.71Z" style="fill:#b16668"></path><path d="M354.14,211.84c3.18,1.44,5.61,1.78,9,4.09a18.81,18.81,0,0,0-6.16-4.67A10.86,10.86,0,0,0,354.14,211.84Z" style="fill:#9a4a4d"></path><path d="M326.4,188.85a.86.86,0,1,1-.86-.87A.86.86,0,0,1,326.4,188.85Z" style="opacity:0.2"></path><path d="M327.05,193.64a.86.86,0,0,1-1.72,0,.86.86,0,0,1,1.72,0Z" style="opacity:0.2"></path><path d="M327.65,198.66a.86.86,0,0,1-1.72,0,.86.86,0,1,1,1.72,0Z" style="opacity:0.2"></path><path d="M305.26,180.17s6.89,7,7.39,19.65c1.28,32-18.46,37.63-18.46,37.63a29.37,29.37,0,0,1,0-6.26s12.34-13.5,11.72-29.87c-.44-11.67-5-18.6-7.88-19.51A14.76,14.76,0,0,1,305.26,180.17Z" style="fill:#263238"></path><path d="M286.93,235.45a20.74,20.74,0,0,0,8.17-4.59c5.85-4.78,6.19-5.52,11.06-9.76,1.65-1.44,3.14-2.88,3.84-3.52a19.05,19.05,0,0,0,3.7-3.65,11.54,11.54,0,0,0,2.12-4.28c.24-1.66.86-3.34.56-5.05-.09-.49-.24-1-.31-1.47a11.94,11.94,0,0,1,0-2.07,9.86,9.86,0,0,0-.41-3.58,6.33,6.33,0,0,0-1.61-2.56c-.54-.53-1.27-1.21-2.14-1,.13.74.3,1.61.45,2.64a8.46,8.46,0,0,1-1.94,4.2c-1.84,2.36-3.41,3.58-3.63,3.1s.48-2,.26-4.4-.87-3.31-1.6-3.5c-1.18-.31-1.18,1-1.7,2.9-.61,2.3-1.62,3.56-1.77,7-.13,3,.35,3.68-1.34,5-1,.76-4.23,2.54-4.23,2.54s.94-3.24,2.5-8.78c3-10.74,1.78-20.4-2.46-22-5.26,1.23-8.66,2.85-11.44,11.6-3,9.31-3,10.72-6.12,29.24C276.66,236.91,282.36,236.76,286.93,235.45Z" style="fill:#b16668"></path><path d="M296.43,213.41c-3.84,2.8-12.22,6.81-13.34,11.33,0,0,.18-3.59,5.26-7.86a67.87,67.87,0,0,1,8.94-6.47Z" style="fill:#9a4a4d"></path><path d="M298,181.81c-4.49,1.16-8.82,2-10.86,5.73-2.55,4.66-3.08,7.18-4.34,12.43s-2.15,10.89-2.15,10.89a19.37,19.37,0,0,0,8.4,2.88c5.15.58,7.72-.91,7.72-.91l3.32-12S303.12,188.85,298,181.81Z" style="fill:#81FF00"></path><g style="opacity:0.15"><path d="M298,181.81c-4.49,1.16-8.82,2-10.86,5.73-2.55,4.66-3.08,7.18-4.34,12.43s-2.15,10.89-2.15,10.89a19.37,19.37,0,0,0,8.4,2.88c5.15.58,7.72-.91,7.72-.91l3.32-12S303.12,188.85,298,181.81Z"></path></g></g></g><g id="freepik--Character--inject-23"><g id="freepik--Backpack--inject-23"><path d="M192.77,153.23c1.25,1.85,4.32-.25,9.76-2.68s2-27.07,2-27.07-8.87.5-10,8.86S192.77,153.23,192.77,153.23Z" style="fill:#81FF00"></path><path d="M192.77,153.23c1.25,1.85,4.32-.25,9.76-2.68s2-27.07,2-27.07-8.87.5-10,8.86S192.77,153.23,192.77,153.23Z" style="opacity:0.25"></path><path d="M236.68,107.56c5.22-.35,17.09,5.09,19.13,9.07,2.14,4.17,12,61.64,7.82,67.27-5.24,7.07-32.08,21.75-44.16,22-10,.2-19.89-8.45-21.54-11-2.71-4.24-2.62-63.9.28-69.07C202.91,117.4,230,108,236.68,107.56Z" style="fill:#81FF00"></path><path d="M236.68,107.56c5.22-.35,17.09,5.09,19.13,9.07,2.14,4.17,12,61.64,7.82,67.27-5.24,7.07-32.08,21.75-44.16,22-10,.2-19.89-8.45-21.54-11-2.71-4.24-2.62-63.9.28-69.07C202.91,117.4,230,108,236.68,107.56Z" style="fill:#fff;opacity:0.1"></path><path d="M236.68,107.56c5.22-.35,17.09,5.09,19.13,9.07,2.14,4.17,12,61.64,7.82,67.27-5.24,7.07-32.08,21.75-44.16,22-10,.2-19.89-8.45-21.54-11-2.71-4.24-2.62-63.9.28-69.07C202.91,117.4,230,108,236.68,107.56Z" style="opacity:0.2"></path><path d="M196,156.15c0-2.5.07-5,.13-7.36,0-1,.05-1.9.08-2.83.07-1.85.14-3.64.22-5.33,0-.85.08-1.67.13-2.47.07-1.2.15-2.34.23-3.41s.17-2.06.27-3c0-.3.06-.6.09-.88a17.64,17.64,0,0,1,1.06-5.11,7.22,7.22,0,0,1,.46-.72l.17-.24.38-.49.24-.28c.13-.16.27-.31.42-.47l.27-.29c.21-.22.44-.44.68-.66s.32-.29.48-.43l.32-.29.56-.47.28-.23.65-.51c4.8,1.72,9.33,3.35,9.47,3.43s5.21,2.8,5.35,10.11l1.48,29.57.14,2.8c.14,3.93,5.35,39.92-5.83,38.41l-.44-.06c-7.58-2.26-14.06-8.07-15.36-10.11a6.1,6.1,0,0,1-.59-2c-.07-.38-.14-.81-.2-1.28,0-.23-.07-.48-.1-.73-.09-.77-.18-1.63-.26-2.57,0-.31-.06-.64-.08-1-.39-5-.62-11.82-.71-19.19q0-2.22,0-4.47c0-1,0-2,0-3v-1.5Z" style="fill:#81FF00"></path><path d="M197.39,129.11a11.38,11.38,0,0,1,.82-3.33c4.7-8.38,31.81-17.77,38.47-18.22,5.22-.35,17.09,5.09,19.13,9.07a32,32,0,0,1,1.45,5.26c-10.17,6.07-36.54,19.76-39.37,18.89-3.47-1.07-20.18-11.19-20.5-11.65Z" style="opacity:0.4"></path><path d="M194.41,168c.31-.17,4.73-3.82,5.25-4.12.91-.52,14.92,8,16.25,9.55.93,1.05.34,17.9-.14,19.13-.17.44-5.08,3.67-5.25,4.11-.48,1.22-15.25-7.46-16.25-9.68S193.06,168.75,194.41,168Z" style="fill:#81FF00"></path><path d="M194.41,168c.31-.17,4.73-3.82,5.25-4.12.91-.52,14.92,8,16.25,9.55.93,1.05.34,17.9-.14,19.13-.17.44-5.08,3.67-5.25,4.11-.48,1.22-15.25-7.46-16.25-9.68S193.06,168.75,194.41,168Z" style="opacity:0.18"></path><path d="M210.67,177.54c.92,1.05.33,17.9-.15,19.12s-15.25-7.46-16.25-9.68-1.21-18.23.14-19C195.33,167.47,209.34,176,210.67,177.54Z" style="fill:#81FF00"></path><path d="M199.65,163.88c-.51.28-4.93,3.94-5.24,4.11.91-.52,14.93,8,16.25,9.55l5.25-4.11C214.58,171.92,200.57,163.35,199.65,163.88Z" style="opacity:0.4"></path><path d="M210.67,177.54c.92,1.05.33,17.9-.15,19.12s-15.25-7.46-16.25-9.68-1.21-18.23.14-19C195.33,167.47,209.34,176,210.67,177.54Z" style="opacity:0.30000000000000004"></path><path d="M215.91,173.43c-1-.62-4,1.13-5.25,2.31s-2.43,6.51-5.77,7.5-8.29-3.26-9.42-6.07-2.58-8.76-1-11,4.33-3.51,6.78-2.33S215.5,170.81,215.91,173.43Z" style="fill:#81FF00"></path><path d="M215.91,173.43c-1-.62-4,1.13-5.25,2.31s-2.43,6.51-5.77,7.5-8.29-3.26-9.42-6.07-2.58-8.76-1-11,4.33-3.51,6.78-2.33S215.5,170.81,215.91,173.43Z" style="opacity:0.1"></path><path d="M200.83,176.43a2.52,2.52,0,0,1,1.28,2.27,1,1,0,0,1-1.5,1,2.45,2.45,0,0,1-1.28-2.27C199.39,176.49,200.07,176.06,200.83,176.43Z" style="fill:#37474f"></path><path d="M218.27,140.82s-2.17-6.87-10.8-11.36-8.81-3-11.29,1.88c-2.23,4.34-2.5,20.16-2.54,21.68s-1.87,1.31-2-8.36.79-19,9.54-25.08c11.79-8.24,30.33-14.1,39.26-12.57s17.06,5.62,16.84,14.88C257.26,121.89,246.47,137.71,218.27,140.82Z" style="fill:#81FF00"></path><path d="M218.27,140.82s-2.17-6.87-10.8-11.36-8.81-3-11.29,1.88c-2.23,4.34-2.5,20.16-2.54,21.68s-1.87,1.31-2-8.36.79-19,9.54-25.08c11.79-8.24,30.33-14.1,39.26-12.57s17.06,5.62,16.84,14.88C257.26,121.89,246.47,137.71,218.27,140.82Z" style="opacity:0.1"></path><path d="M242.48,118.73s3.36,1.81,3.62,3.91,1.48,7.13.67,8.55-3.46,1.7-3.84.73-1-7-1.59-8.55-3.23-3.45-3.23-3.45Z" style="fill:#81FF00"></path><path d="M222.48,124.24s3.33,1.56,3.59,3.66,1.52,6.92.71,8.34-3.46,1.7-3.85.73-1-7-1.59-8.55-3.26-3.07-3.26-3.07Z" style="fill:#81FF00"></path><g style="opacity:0.30000000000000004"><path d="M242.48,118.73s3.36,1.81,3.62,3.91,1.48,7.13.67,8.55-3.46,1.7-3.84.73-1-7-1.59-8.55-3.23-3.45-3.23-3.45Z" style="fill:#fff"></path><path d="M222.48,124.24s3.33,1.56,3.59,3.66,1.52,6.92.71,8.34-3.46,1.7-3.85.73-1-7-1.59-8.55-3.26-3.07-3.26-3.07Z" style="fill:#fff"></path></g><path d="M246.3,89.64h0c1.91-.59,4.21.08,6.45,2.16,4.47,4.15,7,12.34,5.64,18.29-.72,3.13-2.36,5-4.41,5.48h0l-52.91,14.51L193,104.26l14.84-1.87,5.47-1.64,18.39-5.3,2.54-.84Z" style="fill:#455a64"></path><path d="M199.61,106.35c4.48,4.15,7,12.34,5.64,18.29s-6.09,7.41-10.56,3.26-7-12.34-5.64-18.29S195.14,102.2,199.61,106.35Z" style="fill:#37474f"></path><path d="M233.2,94.94s10.87,6.72,9.28,23.79l-4.37,1.19s1.71-16.43-10.23-23.38Z" style="fill:#81FF00"></path><path d="M213.28,100.75s10.9,6.36,9.31,23.43l-4.38,1.2s1.54-16-10.4-23Z" style="fill:#81FF00"></path><g style="opacity:0.15"><path d="M241.48,107.05a30.65,30.65,0,0,1,1,11.68l-4.36,1.19a32.48,32.48,0,0,0-1.22-11.36Z"></path><path d="M221.85,113.51a31.25,31.25,0,0,1,.74,10.67l-4.38,1.2a31.26,31.26,0,0,0-1.09-10.31Z"></path></g><path d="M192.54,112.05c1.79-1.07,3.63.49,4.45,2a8.09,8.09,0,0,1,.75,4.23,3.11,3.11,0,0,1-.4,1.77c-.32.45-.87.65-1.25.17-.16-.19,0-.76.31-.68s.18.15.26,0a1.32,1.32,0,0,0,.06-.57,8,8,0,0,0-.16-1.68,7.19,7.19,0,0,0-.7-2.48,4.83,4.83,0,0,0-1.51-1.78c-.56-.35-1.41-.51-1.63.26-.36,1.25.33,3,.69,4.14a15.07,15.07,0,0,0,2.36,4.89c.63.79,2.37,2.53,3.52,1.88s1.11-2.8,1.15-3.81a14.52,14.52,0,0,0-.74-4.89,15,15,0,0,0-2.48-5,4.16,4.16,0,0,0-1.78-1.26c-.55-.21-1.85-.65-2.09.14-.06.19-.46.56-.64.27-.62-1,.36-1.82,1.34-2a5.13,5.13,0,0,1,4.33,1.18c1.72,1.42,2.64,4,3.35,6a15.6,15.6,0,0,1,.85,6.87c-.21,1.81-.86,4.08-2.92,4.48-2.21.44-4.46-1.23-5.65-3a16.83,16.83,0,0,1-2.51-6.7C191.25,115.05,191.08,112.94,192.54,112.05Z" style="fill:#263238"></path></g><path d="M280.89,182l-35.43,7.89L256,249.64s-8.31,9-12.82,19.06c-3.28,7.31-14,36.31-15.86,40.92l-3.41,8.63c-.21,1.47,1.95,5.43,5.52,6.44s8.79,1.78,9.26.43c0,0,.84-4.51,5.4-10.93S279.39,262,281,259c2.46-4.55,5.28-8.44,4.88-23C285.49,221.16,282.73,189.43,280.89,182Z" style="fill:#ffa8a7"></path><path d="M283,190.22s.88,7.62,2.86,26.77,3.45,27.06-2,38.76c-4.6,9.82-11.74,20.58-15.65,26.11-.75,1.06-24,34.26-24.43,34.89,0,0-11.37-.75-16-9.75,0,0,9.29-25.87,14.42-37.87l7.22-16.87-16.71-55.75Z" style="fill:#455a64"></path><path d="M246.59,312.65c6.33-9,21-29.95,21.55-30.79.95-1.35,2.1-3,3.35-4.89l-22.22-24.89.06.18-7.22,16.87c-.83,2-1.78,4.29-2.79,6.82a84.43,84.43,0,0,0,2.05,18C242.81,300.6,245.47,308.69,246.59,312.65Z" style="fill:#37474f"></path><path d="M282.18,190.47s.13,9.62-5.45,16.6-9.6,8.87-9.6,8.87,5.13,33,6.18,39.41c1.24,7.57.46,18.15.46,18.15l-11-58.79Z" style="fill:#37474f"></path><path d="M219.49,325.12a5.66,5.66,0,0,0-.92,3.15,9.5,9.5,0,0,0,2.84,5.39,15.34,15.34,0,0,1,3.58,6.59c.7,2.38.64,7.13,3.3,10.68s10.11,8,19.84,5.47c4.77-1.25,5.45-4,5-5.32Z" style="fill:#37474f"></path><path d="M240.22,321.78c-.5,3.34-1.84,9,4.42,17.61,3.08,4.26,9.56,6.55,8.45,11.69-2.58,3.73-7.67,4.81-13.56,4a15.62,15.62,0,0,1-8.76-4.39c-2.41-2.27-2.32-4.54-3.7-9a38.66,38.66,0,0,0-2.89-7.37c-1.29-2.31-5.25-4.49-4.69-9.2.16-1.31,2-2.68,2.73-5,.93-3,1.54-4.34,2.59-4.14l-.3.75c1,1,3.49,2.15,4.05,3.2.94,1.73.56,4.14,1.2,4.15s.89-3.33,2-3.8A7.92,7.92,0,0,1,240.22,321.78Z" style="fill:#455a64"></path><path d="M246.74,341.68a15.09,15.09,0,0,1-2.1-2.29c-6.26-8.63-4.92-14.27-4.42-17.61a7.92,7.92,0,0,0-8.45-1.46c-1.12.47-1.37,3.8-2,3.8,0,7.38,5.16,16.38,7.16,18.94A14,14,0,0,1,246.74,341.68Z" style="fill:#37474f"></path><path d="M230.17,328.14c3.13-2.12,7.16-1.65,9.6-.81a2.07,2.07,0,0,1,.14,1.35,11.41,11.41,0,0,0-9,.71C230.07,329.71,229.46,328.56,230.17,328.14Z" style="fill:#263238"></path><path d="M231.59,333.35c3.13-2.11,6.84-1.63,9.28-.79a3.38,3.38,0,0,1,.55,1.34,11.62,11.62,0,0,0-9,.71C231.48,334.93,230.88,333.78,231.59,333.35Z" style="fill:#263238"></path><path d="M233.74,338.05a10.37,10.37,0,0,1,9.15-1.31,5.79,5.79,0,0,1,.82,1.31,12,12,0,0,0-9.13,1.22C233.7,339.63,233.05,338.51,233.74,338.05Z" style="fill:#263238"></path><path d="M236.64,342.56a11.25,11.25,0,0,1,9.53-1.42,4.42,4.42,0,0,1,1.11,1,14,14,0,0,0-9.81,1.61C236.6,344.14,236,343,236.64,342.56Z" style="fill:#263238"></path><path d="M278,342c-.79-7.54-5.93-51.81-7.09-74.14-3-25.9-10.14-52.38-10.14-52.38a36.41,36.41,0,0,0,11.16-10c8-10.46,8.16-19.53,8.16-19.53l-4.31-.48-47-.07c-.19,7.75-.94,18.61-.3,28.69,1.31,20.68,19.74,57.94,19.74,57.94-.31,2.84-2.87,14.79-.41,25.44,3.87,16.79,12.74,38.11,14.58,47.19h0l1.55,7.68c6.07,1.14,11.74,1.13,17-2.36A16.17,16.17,0,0,1,278,342Z" style="fill:#b16668"></path><path d="M243.48,286.75s-1.85-20.53-2.82-23.69-8.59-24.81-11.15-33.74-4-17.72-3.87-24.1a221.7,221.7,0,0,1,2.2-22.17L283,185.58c-1.07,17.55-20.16,29.13-20.16,29.13s8.75,38.23,9.67,43.47S274.28,284,274.28,284c1.61,19.19,4.26,54.07,4.26,54.07s-6.56,5.25-20.7,2.63c0,0-3.14-12.61-5.79-21S244.76,299.54,243.48,286.75Z" style="fill:#455a64"></path><path d="M251.36,267a44.05,44.05,0,0,1,13.19-1.38,34.24,34.24,0,0,0-8.75,3.64,51.14,51.14,0,0,0,6.43-.38A16.2,16.2,0,0,0,259,270.3c2.08.33,4.16.7,6.22,1.1a1.26,1.26,0,0,1,.72.32.43.43,0,0,1-.08.67,3.65,3.65,0,0,0,4.35-2.05l-4.51-1,5.66-2.14a6.64,6.64,0,0,0-3.31-1.53,11.92,11.92,0,0,0,2.69-1.05,12.22,12.22,0,0,0-3.07-.87c.93-.1,1.91-.06,2.83-.24.21-.05.47-.08.31-.31s-.79-.34-1-.4a13,13,0,0,0-1.86-.36,14.36,14.36,0,0,0-4.39.05,33,33,0,0,0-6,1.53A32.63,32.63,0,0,0,252,266.6Z" style="fill:#b16668"></path><path d="M227.09,219.31s13.66,1.2,21.39.1c0,0,6.8,28.7,7.08,32s-13.49,3-16.26,2.46-4.9-1-6.72-8.3S227.71,226.49,227.09,219.31Z" style="fill:#37474f"></path><path d="M261.1,356.92s-.27,2.95.15,3.75,2.79,1.72,5.29,2.74c2,.82,3.47,1.07,5.78,4.81a21.42,21.42,0,0,0,7.71,7.6c4.23,2.32,9.88,2.24,15,.92,5.89-1.51,7.33-2.94,7.2-6Z" style="fill:#37474f"></path><path d="M277.3,343.75a2.2,2.2,0,0,1,2.1,1.47c1.23,3.5,4.44,8.28,8.78,12.28,4.88,4.48,8.74,4.22,12.82,8.16a6,6,0,0,1,1.25,5.08c-.83,2.45-6.08,4.47-9.81,4.87-6.23.66-9.19-.26-12.22-1.91-6.3-3.43-6.71-8.51-10.56-10.73-2.21-1.27-7.27-2.69-8.55-4.86-1.26-4.65.6-6,.34-9.4-.32-4,.33-4.45.89-4.63l.42,2.05a9,9,0,0,1,4.66,1.31c1.51,1,2.08,4.29,2.68,4,.43-.23-.07-2.12-.33-3.59a2.29,2.29,0,0,1,1-2.27A12.35,12.35,0,0,1,277.3,343.75Z" style="fill:#455a64"></path><path d="M282.7,365.54c4.63-4.44,8.88-4.48,11.16-4.25a22.75,22.75,0,0,1-5.68-3.79c-4.34-4-7.55-8.78-8.78-12.28a2.2,2.2,0,0,0-2.1-1.47,12.35,12.35,0,0,0-6.58,1.81,2.29,2.29,0,0,0-1,2.27c.26,1.47.76,3.36.33,3.59C271.94,356.44,276.54,361,282.7,365.54Z" style="fill:#37474f"></path><path d="M271.08,354.23c3.21-4.44,10.07-4.41,11.12-3.67a3.21,3.21,0,0,1,.77,1.1,11.39,11.39,0,0,0-10.73,3.49C271.52,355.75,270.56,354.88,271.08,354.23Z" style="fill:#263238"></path><path d="M274.08,357.76c3.21-4.44,9.77-4.41,10.82-3.67a9.68,9.68,0,0,1,1,1.1,11.18,11.18,0,0,0-10.61,3.49C274.52,359.28,273.56,358.41,274.08,357.76Z" style="fill:#263238"></path><path d="M277.49,361.57c3.21-4.44,9.88-4.6,10.93-3.86.64.55,1.26,1,1.26,1a12.18,12.18,0,0,0-11,3.73C277.93,363.09,277,362.22,277.49,361.57Z" style="fill:#263238"></path><path d="M282,365.07c3.21-4.44,10.31-4.75,11.36-4a17.36,17.36,0,0,1,2,.95c-2.58-.7-9.08.38-12.16,4C282.48,366.59,281.51,365.72,282,365.07Z" style="fill:#263238"></path><g id="freepik--top--inject-23"><path d="M282.85,138.72c-1-8.64-3.4-22.82-16.72-23.7,0,0-11.38.06-22.34,1.25a60.85,60.85,0,0,0-18.6,5.42l3.59,42.85s-1.66,17.59-2.48,32c12.12,8.13,44.17,6.73,57.39-.77C283,182,283.81,147.26,282.85,138.72Z" style="fill:#fafafa"></path><path d="M238.31,117.12s5.93,6.11,6.15,21.59c.55,39.15-17.41,39.87-17.41,39.87a122.36,122.36,0,0,1,1.08-12.87s9.92-5.26,9.69-25.26c-.17-14.26-2.4-20.28-5.92-21.48C231.9,119,233.45,116.75,238.31,117.12Z" style="fill:#81FF00"></path><path d="M238.31,117.12s5.93,6.11,6.15,21.59c.55,39.15-17.41,39.87-17.41,39.87a122.36,122.36,0,0,1,1.08-12.87s9.92-5.26,9.69-25.26c-.17-14.26-2.4-20.28-5.92-21.48C231.9,119,233.45,116.75,238.31,117.12Z" style="opacity:0.4"></path><g id="freepik--Head--inject-23"><path d="M248.41,74.62a5.78,5.78,0,0,0-6.08,2.4c-2.34,3-1.13,9.41,0,16.09a49.73,49.73,0,0,0,3.45,12.26,5,5,0,0,0,2.72,2.55l.41-7.79.14-5.44s3.85-4.49,4.53-8.35c.88-5,0-7.11,0-7.11Z" style="fill:#37474f"></path><path d="M243,83.09A19.48,19.48,0,0,0,261,104c10.74.8,20.14-12,20.94-22.73S274.63,65.9,263.9,65.1A19.48,19.48,0,0,0,243,83.09Z" style="fill:#37474f"></path><path d="M242,101.42c2.74,2.08,5.53-.68,5.53-.68l-1,16.13s.52,2.51,6.21,5.61c7,3.84,17.32,2.3,12.37-5.83l.41-3.5a23.68,23.68,0,0,0,5.14.38c3.61-.28,6.08-2.93,7.45-6.71,2.19-6.08,2.5-15.44,1-27.69-3.76-3.41-16.84-4.9-25.65-.23C253.4,86,251.18,89,251,91.62c-.62,1-2.91,1.66-3.37,2a5.75,5.75,0,0,0-1.57-3.35c-1-1.22-4.48-3.06-6.55.57S239.67,99.64,242,101.42Z" style="fill:#b16668"></path><path d="M263.71,91.37A1.68,1.68,0,1,1,262,89.64,1.72,1.72,0,0,1,263.71,91.37Z" style="fill:#263238"></path><path d="M276.44,90.91a1.69,1.69,0,1,1-1.7-1.75A1.71,1.71,0,0,1,276.44,90.91Z" style="fill:#263238"></path><path d="M258.9,86.32l3.53-1.7a2.06,2.06,0,0,1-.95,2.68A1.91,1.91,0,0,1,258.9,86.32Z" style="fill:#263238"></path><path d="M273.88,84.47l3.38,2a1.89,1.89,0,0,1-2.65.73A2.08,2.08,0,0,1,273.88,84.47Z" style="fill:#263238"></path><path d="M267.84,89,269,98.45l5-1.36C272.11,92,270.09,88.66,267.84,89Z" style="fill:#9a4a4d"></path><path d="M251,91c.16,7.66,2.6,10,5.2,10.92,4.15,1.45,7.2-1,12.15-1.72,3.3-.44,5.47.79,7.74,1.57.44.15.95.29,1.43.41a1.69,1.69,0,0,0,2.1-1.44,59.73,59.73,0,0,0,.5-8.74L280,89l.46-1.19s.46,12.4,0,16-1.06,6.49-4,8.53-9.06,2.76-16.22,1-9.76-4.25-10.55-6.81A41.83,41.83,0,0,1,247.5,93Z" style="fill:#37474f"></path><path d="M268.89,104.6l-.17-.15a3.44,3.44,0,0,0-.27-.27,2,2,0,0,0-.46-.28,5.45,5.45,0,0,0-.89-.39,6.6,6.6,0,0,0-2.21-.35.32.32,0,0,0-.32.33.44.44,0,0,0,.39.37,8.2,8.2,0,0,1,2,.55c.26.11.52.22.77.35s.38.15.57.24a2.35,2.35,0,0,0,.64.24s.21-.09.17-.11A.86.86,0,0,0,268.89,104.6Z" style="fill:#263238"></path></g><path d="M231.9,119.45c-7.89,1.64-9.44,3-13.82,13.52s-9.24,29.71-11.41,31.36-21.91,18-25.22,19c-2.94.93-6.61.78-10.53,3.07s-6.06,3.7-7.53,4.63-2.39,2.63,1.53,2.79,8-3.08,6.94-1.56c-.88,1.32-8.4,4.54-11.12,6.33-3.11,2,.47,4.76,4.07,6.39s8.53,2.1,14-.87A45.6,45.6,0,0,0,190.48,195c2.45-2.46,20.64-12.52,24-14.23,5.45-2.78,6.54-3.28,10-10.15s10.83-25.8,10.83-25.8S237.63,125.18,231.9,119.45Z" style="fill:#b16668"></path><path d="M231.9,119c-3.19.55-8,2-10.45,5.86s-4.4,9.81-6.23,14.76-8.36,24.26-8.36,24.26l-16.66,13.2a12.88,12.88,0,0,1,4.42,7.15,21.84,21.84,0,0,1,.37,8.26l22.85-12.86c3.06-1.74,3.75-2.07,6.08-6.56S236,145,236,145,239.24,122.61,231.9,119Z" style="fill:#e0e0e0"></path></g></g></g></g><g id="freepik--character-1--inject-23"><g id="freepik--character--inject-23"><g id="freepik--Bottom--inject-23"><path d="M148.44,300.94a4.38,4.38,0,0,0-2.73,2.25c-.48,1.8.31,4.87,1.39,7.78s1.47,4.09.74,6.33a20.43,20.43,0,0,0-1.41,9.1c.37,4.08,2.25,9.36,8.32,13.77,5,3.62,7.7,2.48,9.33,2.16a4.09,4.09,0,0,0,2.5-1.68Z" style="fill:#263238"></path><path d="M224.37,236.17c-.57-9.72-1.9-22.58-3.17-33.7a102.49,102.49,0,0,0-5.34-23.06c-5.52,9.52-15.18,20.38-15.18,20.38l-22.79-.51s8.28,27.57,13,43.34c-8.28,5.24-13.12,11.21-18.39,21.69-3.41,6.76-5.78,11.91-9.36,19.77-1.87,4.08-4.87,9.27-6.88,11.49s-4.45,2-6.89,4.21l0,0a6.14,6.14,0,0,0-1.74,6.05c.1.27.19.54.28.84.38,1.39,1.75,4.61,2,7.31.22,2.48-.55,4.42-1.53,7.66a13.91,13.91,0,0,0,1.49,10.2c1.27,2.21,5.33,6.95,9.61,8.62,6.83,2.66,9.32-.84,8.5-4.09s-2.31-5.91-2.9-8.28a19.87,19.87,0,0,1-.47-8.52c.61-3.46,1.61-6.1,3-10.67.81-2.71.91-5.12,10.35-13.46,0,0,25.21-20.6,32.46-27.25C224,255.74,225.39,253.59,224.37,236.17Z" style="fill:#f28f8f"></path><path d="M149,330.89c5.22-4.33,13.27-2.94,16.92-.27,2.7,5.24,4.44,11.11-2,11.12C154.9,341.74,149,330.89,149,330.89Z" style="fill:#37474f"></path><path d="M149.23,311.94c2.38-1.28,7.66-8.29,6-15.69-1.26,1-3.78,1.33-5.22,2.48s-3.2,2.54-3.1,5.21S149.23,311.94,149.23,311.94Z" style="fill:#37474f"></path><path d="M215.86,179.41s4.06,5.87,6.6,24.08,3.54,42.13,3.19,46.38-4.32,9.66-8.89,13.95-44,43.82-44,43.82-5.38,1.54-12.62-6.28c-4.79-5.18-3.71-9.38-3.71-9.38s3.41-6.64,6.24-13,10.61-22.47,17.53-29.74,8.52-7.28,8.52-7.28l-13.12-43.62Z" style="fill:#455a64"></path><path d="M178.53,301.82c10.6-10.59,26.19-26.17,33.91-33.79a328,328,0,0,0-7-51.53c6.73-5.7,7.71-10.92,8.07-15.83l-12.81-.88-22.79-.51,0,.07,3.76,12.56a10.41,10.41,0,0,1-.16,6.28L188.67,242s-1.59,0-8.52,7.28a67.36,67.36,0,0,0-8.29,11.7l4.51,13.33C173.21,281.73,176.73,294.6,178.53,301.82Z" style="fill:#263238"></path><path d="M188.53,356.2a9.29,9.29,0,0,0,.3,2.85c.73,1,2.07,1.54,4.92,3.15a12.79,12.79,0,0,1,5.42,5.28,26.35,26.35,0,0,0,4.26,5.73c3.18,2.94,7.4,4.64,15.33,4.44,5-.12,9.27-2.95,10.38-4.32s.2-3.37.2-3.37l-38.5-16.87-1.63,1.65A2.3,2.3,0,0,0,188.53,356.2Z" style="fill:#263238"></path><path d="M221.07,362.2a35.39,35.39,0,0,1-5.43-4.43c-2.56-2.58-8.17-10.13-8.33-16.14-.34-13.18,1-37.63,1.15-47.68.34-27-.5-30.51-2.22-47.49l-4.74-32.4s7.79-2.72,12.33-14.22c2.26-5.74,1.3-13.54,2-20.43,0,0-6.57,4.2-22,3.79-16.45-.44-19.85-9.33-19.85-9.33-1.53,4.12-3.54,7.75-7.93,19.28-1.42,3.72-4.82,15.7-2.89,24.09,1.84,8,3.11,12,7,23.66,4.47,13.33,11.68,33.45,11.68,33.45-1.55,9.15-1,14.08,3.08,33.31,1.8,8.4,3.43,18.55,4.41,23.48a85.58,85.58,0,0,1,1.59,10.5c.07,6.33-4.81,12.49.61,16.47,1.07.78,4.16,2.69,5.29,3.39,3.66,2.27,4.42,6.51,7.72,9.28a18.52,18.52,0,0,0,7.91,4.12,18.07,18.07,0,0,0,9,.07,16.94,16.94,0,0,0,5.47-2.08c.91-.54,3.22-2.55,2.37-4.91C228.94,366.94,222.76,363.27,221.07,362.2Z" style="fill:#f28f8f"></path><path d="M205.29,371.79c1.77-5.82,11.59-10,15.43-9.88,2.46,1.53,7.53,4.35,8.41,5.24s1.3,5.23-4.41,7.33A19.74,19.74,0,0,1,205.29,371.79Z" style="fill:#37474f"></path><path d="M195.33,361c.36-4,.33-10.74-5.24-13.66-1,1.68-2.59,6.5-.94,10A10.85,10.85,0,0,0,195.33,361Z" style="fill:#37474f"></path><path d="M215.86,179.41c1.6,4.83,2.8,26.38-12.35,35.72,0,0,4.7,27.1,5.77,41.49s.93,27.71,1.13,40.32,0,48.27,0,48.27c-1.46,4.32-16.77,4.33-21.4-1.8,0,0-2.06-11.29-3.75-21.24-1.54-9.05-6-26.13-6.52-36.18s.35-12.54.35-12.54l-13.29-41.34c-4.49-12.07-8-30,8.27-58.24Z" style="fill:#455a64"></path></g><g id="freepik--top--inject-23"><path d="M220.5,132.49a8.93,8.93,0,0,0,.1-1c.24-4.94-2.78-9.67-6.93-12.38-3.72-2.43-7.65-4.24-10.93-7.32l9.74-6.1c6-3.27,5.67-8.73,4.18-12.78-3.33-9.05-13.18-12.35-19.25-12.62-11.52-.52-17.12,2.51-18.25,8.48-4.25-.3-8,4.24-8.59,17.11a24.35,24.35,0,0,1-1.33,7.38,10.19,10.19,0,0,1-3.85,4.92c-3.31,2.52-7.39,4.46-9.59,8.17a10.68,10.68,0,0,0-1.25,7.56,9.58,9.58,0,0,0,2.31,4.41,3.83,3.83,0,0,1,.77,4,11,11,0,0,0,1.85,10,13.43,13.43,0,0,0,8.26,4.38,24.21,24.21,0,0,0,9.32-1.36,18.78,18.78,0,0,1,6.48-1.05c2.64.06,5.22,1.16,7.72,1.89,3,.89,6,2.13,9.2,1.76a14.26,14.26,0,0,0,8.06-4.15,10.06,10.06,0,0,0,2.67-4.64c.2-.67,1-7.84.16-7.81C216,141.16,219.79,137.05,220.5,132.49Z" style="fill:#263238"></path><path d="M211.27,131.61c4.17-6,4.73-15.26,2.68-26.9l-1.47.94-14.75,2.44,2.81,20.27Z" style="fill:#37474f"></path><path d="M244.23,167c-1.44-2.4-8.36-12.59-8.36-12.59s-4.82-6.94-7.71-11-5.61-7.53-8.07-9.46-5.88-2.48-11-2.73l1,21.28,12.37,14.32,11.87,15.24,12.29-2.15C248.44,176.26,246.68,171.07,244.23,167Z" style="fill:#81FF00"></path><path d="M244.23,167c-1.44-2.4-8.36-12.59-8.36-12.59s-4.82-6.94-7.71-11-5.61-7.53-8.07-9.46-5.88-2.48-11-2.73l1,21.28,12.37,14.32,11.87,15.24,12.29-2.15C248.44,176.26,246.68,171.07,244.23,167Z" style="opacity:0.15"></path><g style="opacity:0.2"><path d="M239.62,168.94c1.48-1,4-.5,4-.5a5.3,5.3,0,0,0-4.11-1.07C237.15,167.8,239.62,168.94,239.62,168.94Z"></path></g><path d="M162.62,245.13c0-12.57-3.58-35.7.26-46.9s7.69-18.54,7.8-22.09c0,0-3.69-20.4-4.15-24.61-1.2-11,.77-16.11,3-17.27a79.06,79.06,0,0,1,8.17-2.69c7.59-2.16,18.46-2.43,25.53-2.32,2.65.14,3.46.23,3.46.23a64.64,64.64,0,0,1,9.53,8.68c5.61,6.52,9.34,12.43,8.44,19.13a16.08,16.08,0,0,1-3.72,7.89c-.43,3.24-1.13,12.44-1.13,12.44.08,3.6.76,8.57,2.59,17.26,0,0,4.19,36.34,4.19,56.05-.36,4.94-.64,11.28-.64,11.28-.41,10.3-44.2,28.49-66.89,1.23C161,256.65,162.62,249.79,162.62,245.13Z" style="fill:#81FF00"></path><path d="M212.3,265.4c0-13.55-2.38-34.94-5.89-41.57s2.56-3.3,5.9-8.7c3.69-6,6.35-12.51,6.84-6.94S217,248.68,216,257.25,212.3,273.56,212.3,265.4Z" style="opacity:0.05"></path><g id="freepik--arm--inject-23"><path d="M178.15,131.42l-5.56,1.46s-7.51,2.29-10,17.54c-2.62,16.3-3.72,38.4-3.72,38.4h5.9s1-19.69,3.72-36.42C170.9,137.77,178.15,131.42,178.15,131.42Z" style="fill:#e0e0e0"></path><path d="M145,179.76s.64-3.69,8.53-2.62c7.11,1,40.14,9.52,38,18.87,0,0-5,8.32-24.15,2.53C146.37,192.18,144.69,182.47,145,179.76Z" style="fill:#e0e0e0"></path><path d="M145,179.76c.17,3.35,11.2,12.85,21.46,15.63,11.17,3,22.78,2.41,25.17-.51,1.37,20.92,2.41,39.84,1.94,49.85s-4.48,13.15-13.1,14.6S148,247.21,142.64,239.59s-5.84-15.69-4.29-27.5C140,199.13,145,179.76,145,179.76Z" style="fill:#f0f0f0"></path><path d="M188.15,196.65c.08,8.33.29,31,.18,37.4-.13,7.91-3.58,18.56-14.63,19.4s-29.09-11.59-32.95-16.93a27,27,0,0,0,1.89,3.07c5.4,7.62,29.24,21.18,37.87,19.74s12.62-4.58,13.1-14.6-.57-28.93-1.94-49.85A6.67,6.67,0,0,1,188.15,196.65Z" style="opacity:0.1"></path><path d="M182.28,187.75l1.07-.14c2.15-.23,4.15-1.29,4.7-2.29,1-1.76.23-2-2.43-1.75-1,.09-2.17.1-3.35.13a25.52,25.52,0,0,0-5.72.57c-3.12.76-4.29,2.13-7.32.92S155,177.11,155,177.11l17.27-19.54q7.14-9.82.07-24.39c-11.61,3.09-13.45,5-20.45,15.52-5.87,8.79-11.27,16.71-15.34,25.51-3.68,8-2,9.83,4.48,13.91,5,3.16,21.27,9.22,26.81,11.1s7.68,1.85,13.78,2.41a15.44,15.44,0,0,0,12.26-4.73,42.45,42.45,0,0,0,3-3.23s2.22,0,1.34-2-6.69-1.83-9.14-1.63-8.17-.37-9.36-1.17c-.63-.42.7-.87,2.59-1.15" style="fill:#f28f8f"></path><path d="M172.25,133c-3.48.91-9.22,1.46-14.18,6.83S147,155,143.81,159.89s-7.87,13.47-9,17.31-1,6.2,1.72,8.33a56.34,56.34,0,0,0,12.68,6.9c3.23-.79,9.12-8.45,9-13.37l-2.59-1.91s13.86-15.23,16.63-18.47,5.22-9.44,3.6-17.31S172.25,133,172.25,133Z" style="fill:#81FF00"></path><path d="M172.25,133c-3.48.91-9.22,1.46-14.18,6.83S147,155,143.81,159.89s-7.87,13.47-9,17.31-1,6.2,1.72,8.33a56.34,56.34,0,0,0,12.68,6.9c3.23-.79,9.12-8.45,9-13.37l-2.59-1.91s13.86-15.23,16.63-18.47,5.22-9.44,3.6-17.31S172.25,133,172.25,133Z" style="opacity:0.15"></path><path d="M185.5,187.8V190c-2.42-.18-5-.6-5.81-1.11a.42.42,0,0,1-.15-.15v-.12h0v-1.18c0-6.22-.11-22.13-1-33.3-1.17-14.14-5.92-21.26-5.92-21.26l5.56-1.46s4.72,6.12,5.92,19.81C185.15,163.35,185.5,184.22,185.5,187.8Z" style="fill:#fafafa"></path></g><g id="freepik--head--inject-23"><path d="M180.62,116.22a5.89,5.89,0,0,1-5.23-2.18c-2.7-3.15-2.87-6.29-1.5-8.33,1.12-1.68,3.78-2.69,5.59-1.48s2,2.31,2.68,3.73,3.59,1.38,4.45-4.24c.79-5.24,1.74-10,4.38-12.33,3.95-3.44,8.21-2.73,9.68-.59,1.64-2.41,4.06-3.33,6.64-1.85s4.47,5.47,5.09,15.47c.62,10.2-1.72,17.35-4.1,19-1.81,1.25-4.06,1.46-7.88,1.52l.22,5.95s8,12.13-5,9.55a18.1,18.1,0,0,1-12.07-9l-.73-16.71S182.6,115.91,180.62,116.22Z" style="fill:#f28f8f"></path><path d="M200.16,114.89a2.6,2.6,0,0,0-.78-.52,4.09,4.09,0,0,0-.83-.36,4.84,4.84,0,0,0-.83-.22,2.59,2.59,0,0,0-1-.05c-.08,0-.08.2,0,.22s.28,0,.41.07l.46.09a5.54,5.54,0,0,1,.88.26,6,6,0,0,1,.82.37l.39.23a1.59,1.59,0,0,0,.35.22C200.24,115.28,200.23,115,200.16,114.89Z" style="fill:#b16668"></path><path d="M196.8,104.86a1.68,1.68,0,1,1-1-2.2A1.7,1.7,0,0,1,196.8,104.86Z" style="fill:#263238"></path><path d="M206.37,97.22,210,98.9a1.94,1.94,0,0,1-2.61,1A2.12,2.12,0,0,1,206.37,97.22Z" style="fill:#263238"></path><path d="M205.73,104.58a1.68,1.68,0,1,0,1-2.19A1.72,1.72,0,0,0,205.73,104.58Z" style="fill:#263238"></path><path d="M192.15,98.93l4-1.65a2.07,2.07,0,0,1-1.08,2.8A2.26,2.26,0,0,1,192.15,98.93Z" style="fill:#263238"></path><polygon points="200.3 101.34 201.15 111.36 206.64 109.44 200.3 101.34" style="fill:#b16668"></polygon><path d="M200.42,124.93a35.91,35.91,0,0,1-10.81-2.33c-1.25-.54-2.94-2.82-4.32-5.37,0,0,1,5,3.68,6.74,4.12,2.62,11.53,3.26,11.53,3.26Z" style="fill:#b16668"></path></g><path d="M200.94,80.7c-11.73.45-16.69,5.36-19.24,18.06s-.42,20.85,2.14,26,12.18,10.11,16.7,3.62c7.41,1.26,9.81,1.81,14,3.39,1.25,3.38,4.35,11.46-5.85,16.88-12.8,6.79-39.57,4.29-42.87-10.15s1.66-21,2.85-27.37,1-16.88,7.21-23.35S191.08,76.34,200.94,80.7Z" style="fill:#455a64"></path><path d="M238.8,161.29c1.28,1.65,2.81,8-3,15s-13.52,13-25.4,14.56-24.14-2.69-23.57-10.83,10.88-10.89,15.44-13.07,10.65-11.69,19.61-12.07S238.8,161.29,238.8,161.29Z" style="fill:#fafafa"></path><path d="M238.45,172.19c-4.41,3.27-15.83,9.84-20.82,10.68s-10.81-.36-14.42-4.1c-.69-.72-1.48-1.6-2.47-1.49s-1.71,1.44-1.53,2.54a11.64,11.64,0,0,0,1.32,3,3,3,0,0,1,0,3.14,3.32,3.32,0,0,1-2,1,17.14,17.14,0,0,1-8.84-.53c4.25,3.77,12.57,5.43,20.71,4.37,11.88-1.55,19.59-7.56,25.4-14.56A20.32,20.32,0,0,0,238.45,172.19Z" style="fill:#ebebeb"></path><path d="M243,151.73c.27,3.37-2.41,8-4.18,8.62-1.8,1.49-3,2.8-6.72,3.46-5.07.9-9.41-.39-11.89-4.35a9.06,9.06,0,0,1-1-5.07,7,7,0,0,1,1.93-4.23c.82-1.1.63-1.65,1.16-2.91a10.77,10.77,0,0,1,1.91-3.22,9.17,9.17,0,0,1,3-2.05,10.72,10.72,0,0,1,3.48-.82A11.22,11.22,0,0,1,243,151.73Z" style="fill:#f28f8f"></path><path d="M230.68,141.16a10.72,10.72,0,0,0-3.48.82,12,12,0,0,0-1.79,1c1.66-.1.71,2.44,3.51,3.84s6.72.74,8,1.23-.09,2.93-.7,4.82a1.61,1.61,0,0,0,1.53,2.27,1.76,1.76,0,0,1,2.27.72c1.38,2-.5,3.91-.5,3.91h.21a11.55,11.55,0,0,0,3.28-8A11.22,11.22,0,0,0,230.68,141.16Z" style="fill:#b16668"></path><path d="M239.52,155.17a2.16,2.16,0,0,0-2.6.26c-.07.09-.07.41.1.37a6.44,6.44,0,0,1,1.43-.27,1.84,1.84,0,0,1,1.18.41,2,2,0,0,1,.16,2.49,3.45,3.45,0,0,1-1.82,1.93,1.6,1.6,0,0,1-2-.73c-.08-.16-.26-.08-.25.09a1.78,1.78,0,0,0,1.93,1.48,2.93,2.93,0,0,0,2.17-1.34,4.6,4.6,0,0,0,1-2.6A2.42,2.42,0,0,0,239.52,155.17Z" style="fill:#b16668"></path><path d="M232.19,154.23c0,.19-.31-.35-1-.74a2.12,2.12,0,0,0-1.45-.22l-.35.1c-.18.07-.19-.19.15-.46a1.74,1.74,0,0,1,.7-.33,1.65,1.65,0,0,1,2,1.29A1.47,1.47,0,0,1,232.19,154.23Z" style="fill:#37474f"></path><path d="M224.52,151.32c0,.17-.23-.34-.84-.77a1.89,1.89,0,0,0-1.28-.35l-.31.05c-.18,0-.15-.19.18-.39a1.48,1.48,0,0,1,.66-.22,1.41,1.41,0,0,1,1.6,1.36A1.13,1.13,0,0,1,224.52,151.32Z" style="fill:#37474f"></path><path d="M225.44,153.41c-.61-.24-1.53.26-1,.7s2,1.31,2.09.93A2.17,2.17,0,0,0,225.44,153.41Z" style="fill:#b16668"></path><path d="M225.67,157.29l2.5.33a1.19,1.19,0,0,1-1.39,1A1.2,1.2,0,0,1,225.67,157.29Z" style="fill:#b16668"></path><g id="freepik--arm--inject-23"><path d="M241.3,185.28c-2.77,2.28-9.07,7.41-22.61,10.34-7.19,1.56-16,1.46-20.64-1-1.69-1.25-5.91-1.9-6.39-3.83-.19-.77-1.19-1.36-1.68-2.06a5.1,5.1,0,0,1-.63-2.6c4.34,3,13.45,1.81,15.15,1a1.9,1.9,0,0,0,1.13-1.47,2.6,2.6,0,0,0-.76-1.72c-1.49-1.8-3.59-3.27-4.15-5.64a1.58,1.58,0,0,1,.21-1.38c.31-.36.92-.63,1.31-.37a19.89,19.89,0,0,0,4.2,2.39,18.81,18.81,0,0,1,5.14,3.35c.92.8,1.5,1.92,2.74,2.27a7.36,7.36,0,0,0,3.91-.39c6.43-2,9.55-6.18,12.26-8.12a114.84,114.84,0,0,1,9.13-7.13,6.25,6.25,0,0,1,4.71,2.5,13,13,0,0,1,2.29,4.05C247.58,179.88,246.51,181,241.3,185.28Z" style="fill:#f28f8f"></path><path d="M239.62,168.94a44.91,44.91,0,0,0-6.49,4.86c3.49,2.37,6.77,8.8,5.87,13.29,4.54-3.06,8.48-5.57,8.32-11.3C247.32,175.79,244.62,168.11,239.62,168.94Z" style="fill:#81FF00"></path><path d="M239.62,168.94a44.24,44.24,0,0,0-6.49,4.86c3.49,2.37,6.77,8.8,5.87,13.29,4.54-3.06,8.48-5.57,8.32-11.3C247.32,175.79,244.62,168.11,239.62,168.94Z" style="opacity:0.15"></path></g></g></g></g></svg>